/* XPM */
static char *_fa388b4f5144821a9fb67c96d412ab2[] = {
/* columns rows colors chars-per-pixel */
"64 64 256 2 ",
"   c #030303",
".  c #0C0C0C",
"X  c #080807",
"o  c #130C0C",
"O  c #170604",
"+  c #0C120D",
"@  c #14130D",
"#  c #1B160B",
"$  c #0C0D11",
"%  c #080A10",
"&  c #130D13",
"*  c #1A0D15",
"=  c #0D1312",
"-  c #0B1514",
";  c #141314",
":  c #1A1514",
">  c #151A15",
",  c #1B1B15",
"<  c #141519",
"1  c #1A161A",
"2  c #1C1C1B",
"3  c #151B1B",
"4  c #230402",
"5  c #2C0202",
"6  c #2B0B0B",
"7  c #280A07",
"8  c #340201",
"9  c #3B0201",
"0  c #330A03",
"q  c #3A0904",
"w  c #330C0C",
"e  c #3B0C0B",
"r  c #37040A",
"t  c #2D120D",
"y  c #28130A",
"u  c #33130C",
"i  c #3B130C",
"p  c #381505",
"a  c #2B0C12",
"s  c #240A14",
"d  c #370B14",
"f  c #231C1C",
"g  c #291616",
"h  c #331313",
"j  c #3B1313",
"k  c #33131C",
"l  c #3B151B",
"z  c #341B1B",
"x  c #3B1B1C",
"c  c #361A14",
"v  c #1D221D",
"b  c #192218",
"n  c #23221D",
"m  c #27251B",
"M  c #38231B",
"N  c #1D1C22",
"B  c #141D20",
"V  c #231E22",
"C  c #281C24",
"Z  c #391B24",
"A  c #3E1F31",
"S  c #1C2222",
"D  c #1D2428",
"F  c #242324",
"G  c #292323",
"H  c #2B2B25",
"J  c #25242A",
"K  c #252A2A",
"L  c #2B2B2B",
"P  c #272628",
"I  c #3B2324",
"U  c #342D2C",
"Y  c #372728",
"T  c #2C312D",
"R  c #32322E",
"E  c #39332C",
"W  c #2C2B31",
"Q  c #2D2835",
"!  c #332D33",
"~  c #392B34",
"^  c #2F3335",
"/  c #333433",
"(  c #3C3B3C",
")  c #383738",
"_  c #430201",
"`  c #4C0301",
"'  c #440B02",
"]  c #4B0B02",
"[  c #430C0A",
"{  c #4A0A0B",
"}  c #530200",
"|  c #5C0301",
" . c #540C02",
".. c #5B0A01",
"X. c #560C0B",
"o. c #44120D",
"O. c #4B130C",
"+. c #491607",
"@. c #571408",
"#. c #4A0D12",
"$. c #4B1413",
"%. c #451818",
"&. c #581815",
"*. c #630301",
"=. c #6B0300",
"-. c #630B02",
";. c #6B0C02",
":. c #680B0A",
">. c #730300",
",. c #7C0401",
"<. c #730C02",
"1. c #7C0C01",
"2. c #770A09",
"3. c #6B1201",
"4. c #68160A",
"5. c #7B1204",
"6. c #761608",
"7. c #681915",
"8. c #781A16",
"9. c #6D0D11",
"0. c #48231B",
"q. c #5A241A",
"w. c #4D2511",
"e. c #6A2518",
"r. c #782417",
"t. c #722D0F",
"y. c #451C25",
"u. c #551925",
"i. c #462627",
"p. c #562928",
"a. c #49332C",
"s. c #473839",
"d. c #56383A",
"f. c #502E30",
"g. c #692726",
"h. c #772824",
"j. c #6B3530",
"k. c #641E25",
"l. c #3C423D",
"z. c #48433D",
"x. c #714137",
"c. c #3B3D43",
"v. c #453E42",
"b. c #553343",
"n. c #3D4342",
"m. c #4B4B4B",
"M. c #464545",
"N. c #554548",
"B. c #564A53",
"V. c #585657",
"C. c #53514F",
"Z. c #634546",
"A. c #6A5257",
"S. c #645A65",
"D. c #746C6F",
"F. c #625F5F",
"G. c #830D01",
"H. c #890901",
"J. c #970A00",
"K. c #871705",
"L. c #931401",
"P. c #981A06",
"I. c #861B13",
"U. c #971D16",
"Y. c #A61805",
"T. c #B51B03",
"R. c #A91A0E",
"E. c #982608",
"W. c #882617",
"Q. c #972717",
"!. c #913012",
"~. c #A82605",
"^. c #B62605",
"/. c #B93706",
"(. c #A72817",
"). c #B72817",
"_. c #A73518",
"`. c #B83618",
"'. c #AE3807",
"]. c #882C25",
"[. c #9A3628",
"{. c #903128",
"}. c #A73524",
"|. c #B83C27",
" X c #AD2924",
".X c #C41F00",
"XX c #C52907",
"oX c #C73606",
"OX c #D63707",
"+X c #C93719",
"@X c #D23414",
"#X c #E83C0B",
"$X c #E93D15",
"%X c #C83A27",
"&X c #B64B13",
"*X c #90412A",
"=X c #B04A31",
"-X c #A55F1D",
";X c #D74607",
":X c #CB4417",
">X c #D94916",
",X c #D25409",
"<X c #E84A05",
"1X c #E75606",
"2X c #E84917",
"3X c #F44818",
"4X c #E7591B",
"5X c #F55819",
"6X c #F55409",
"7X c #D76C09",
"8X c #E86706",
"9X c #FB6B19",
"0X c #FA7616",
"qX c #EF700B",
"wX c #CA4527",
"eX c #D64523",
"rX c #D15231",
"tX c #E64927",
"yX c #E75628",
"uX c #F75927",
"iX c #F1542D",
"pX c #D96A2E",
"aX c #EB6827",
"sX c #FE7924",
"dX c #F26B2E",
"fX c #A86254",
"gX c #CF7150",
"hX c #F26F49",
"jX c #E26351",
"kX c #FA8817",
"lX c #FC9717",
"zX c #F38D0A",
"xX c #FCA615",
"cX c #F7AA0E",
"vX c #FB8628",
"bX c #FF9827",
"nX c #FB8836",
"mX c #FF9738",
"MX c #EA842F",
"NX c #FEA428",
"BX c #FEB628",
"VX c #FFB434",
"CX c #FFAA3B",
"ZX c #DE8218",
"AX c #FFCB30",
"SX c #FFC31F",
"DX c #9F8C7C",
"FX c #FB914A",
"GX c #FDA94E",
"HX c #F28B6B",
"JX c #D7976D",
"KX c #FFCA49",
"LX c #7A7184",
"PX c #AF9D99",
"IX c #C99A8B",
"UX c #EAD3CF",
/* pixels */
"/ / V F V 2 1 f 2 2 X ^ / .   < J N X > C.T D F.s.    - % P L n 2 $ < 2 m b b , P V C Q J 2 < > @ , > - v 2 & ( V.V.R b P & U ! ",
"( c.! ) s.G . ; 2 >   X 2 ; ; 1 Q L ) , b V.^ / f o X   . & U U < 2 X X , m n @ ) L V G P 2 ; n G , ; S K 3 W L v.m.M./ P ; G ! ",
"P / / M.M.L ; < < ; ; ; 2 L 2 o V G n z./ L ( G G H g O s s g a.Y g x a X @ ) N W ) / L 2 , 2 P P : ; ; < = ^ ^ 2 F V.M.2 > 2 W ",
") / P P 2 2 2 X 2 M.L L P 2 2 V f n X . M.V.B.i.M M 0 8 e e 0.i.0.0.&.%.i O 6 a Y U U H n m P F 1 ; 2 < . S n./ M.n.L R / F > / ",
"( ( M.V.) ; N 2 ) M.m.M.F L F 2 2 F 2 1 O y 0.q.@.` 4.8.r.r.q.p q.&.h.h.4.*X6.} ' p.i.y # m F 3 = . V P X 1 m./ K ( L L M.) - T ",
"V.m.) M.( < < = F / C.M.F V G f , n C Z c +.] t.{.*XW.=X[.3. .@.@.@.h.4.4.fXpX=Xh.q.' 8 M m > L / $ P ! V o L n.> / / ! L F K 3 ",
") ( U 2 2 2 F ;   ; V.m.2 1 f f z h x %.7.6._.rXgX*X*.W.8.3.*.e.$.0.e $.p.w.JXJXh.h.].-.+.c Y M.n.= F / ) f . R G ; F V ! L > v ",
"( P L P 2 $ ; ; J T / ) F G C Y a.%.e { ;.E.hXHX=X-.1.Q.K.5.].7.i.Y h h z i JX*X0 g.gXW.X.0.d.Y m P ) M.! V G / L 2 V.M.L F P P ",
"P P F L . . . F / C.( G Y z s.Z.Z d r ` ;._.HXgX5.K.^.^.Y.}.h.%.Z Y s k k l j.o.p p.fXh.7.@.q.p.i M i.s.) ! L / n o V.S.W F , n ",
"P L / / 2 F F 2 ( m.) s.H a.A.d.b.d [ ..K.HXHXK.~.`.XX^.wX_.#.Z Z s s a k y.y.k M c o.#.7.4.6.r. .9 0 a.N.R n F 2 n 1 ( ) N L , ",
"L / ( ( G < P L L s.H s.z N.d.Z.Z 5 ` <.%XhX%X^.4X2XoXaXgX .8 d h 4 4 t Z i.Z d h z k %.e.I.E.E.E.;.` %.s./ v > ; b 1 < 1 ; v / ",
"L L / l./ ; L ) / U s.s.6 i.A.p.5 _ 3.(.%XXXT.tX2X<XaXpXt.8 0 j 0 0 t z I I k 6 j t f j 4.E.P.`.yX`.;._ i.M./ % , b 2 < < 3 2 P ",
"F P / L 2 . / ( U s.s.a h p.j.9 } <.`.>XOXOX5X5X2X2XrX!.9 0 0 0 [ e y.Z Z Z s 4 u 7 a e K./.~.>X2XyXE.4.j g M.> + b 2 1 $ % 2 P ",
"< L L . ; ; / M.) s.g 4 p.j.8 9 -.~.4X<X<X9XsX5XXXP.=. .' 8 e [ $.[ d Z Z g 4 5 0 t 7 5 _.>X;X5X<XOX`.6.#.y.M.L b F F ; < 1 < P ",
"2 F ; ; G L L s.M.E O x d.e 8  .E.4X9X6XqX9XuXoXL.*. .+.+.] X.7.o.i 7 h g 7 e q 0 4 7 ' rXaX1X1X6X;XP.5.7.u.Z.v., H n ; 1 ; . = ",
"R . X 2 : 2 f G a.7 7 d.e 8  .t.7XbXqX0XvXsXOXY.<.@.%.%.] } 9.7.0 4 h 6 7 j ' { q 0 4 8 6.aX0XqXkX1X~.P.| $.y.B.U / L ; . < ; < ",
"+ X : F ) C Y a.0 q p.y.8  .K.&XNXBXBXVXmX4X+XH.7.u.y.d _ | {.} 8 7 7 6 d #.X.X.' 8 u 0 4.GXNXBXNX1XXXP.3.O.5 s.v.P K - . X : ; ",
"> , , U ~ ~ z 0.i q.%.e ] ;.&XnXCXxXVXNXaXyXE.6.p.i.d r | {.8.} 0 c k %.` 9.8...] ' x p *XGXZXzXkXqX;X~.3.] 6 ~ B.Q K > > T F C ",
"K ; L E C I y.u M i.%._ | E.wX:X/.,XnXdXyX|.e.p.i.Z r _ K.}.-.] j z Z [ =.Q.I.-. .o.I i *XpXE.L.,X5X%X).W.[ 4 S.LXV M.G 2 L G f ",
"N ; R H Y i.%.w s.z 8 ..K.).~.J.wXhX&X~._.W.0.I Y k _ | (.Q...o.x k l _ P.`.K.:.{ j Z i !.`.L.L.2X>X(.I.h.#.* PXUX1 Y : 2 F N V ",
"* Q V.B.I I e %.a.j ` =.(.%XQ.[.[.-.| 3.h.$.c i.A d ` I._.K.] i t j 8 ..`.+XK.} %.z l o.!.L.K.P.yXY.| _ ] [ s S.S.s f f F l.S S ",
"* ) D.S.z j i p.l r *.K.(.P.{.h.] _ @.h.0.M z Z d 9 9.}.Q.3.9 w 0 i 9 4.~.`.5.] w z w &.[.L.G.P.rXG._ i O.o.s C Z Z.i.y n V.n.B ",
"< K C.Y %.O.%.0.d 9 1.}.6.fXUXj.8 +.q.&.%.u x j _ *. X X6.] 9 8 ' `  .6.(.E.] e t u ' r.Q.K.,.P._.-.q j $.o.s s p.j.$.6 n m.V.c.",
"K D m.M { ] p.j 9 :.(.U.e.IXPXw q O.q.%.j x e _ -.Q.(.U...+.o._ ` ..:.6.=X6.9 6 u 8 4.=XQ.G.=.I.8._ %.x $.O.5 6 &.` ] %.Y m.B.V.",
"l.v G i.@.7.#.r *.U. XI.p.Z.i.5  .4.&.%.j e ` ;.}._.P.G.3.@.X.` -.6.;.8.8.] 5 6 e _ Q.|.L.G.,.6.} ' c j O.O.8 8 8.-. .q.E v.B.V.",
"l.( f u e.4.X.| U.%X X7.0.z.c ' 3.8.7.$.$.] >.(.|.`.P.G.6.4.:.4.8.4...} X.] 0 8 9 W.wXT.L.G.2.9.{ e h j &...9 } I.<.@.w.O F f V.",
"( ) : M q...*.G.@X+X8.#.i.i.q } I.I.7.7.| =.+XtX).).L.K.I.1.1.Q.4.` 9 [ ` 9 o.9 6.rX+XY.J.H.2.} r w w o.7.;.} I.(.>.JXPX  L C.M.",
"/ f : i.+.-.1.^.3X^...e p.[ } I.U.U.8.6.,.^.iXtXXXR.U.Q.G.P.}.W.@.o.%.e X. ._ } pXaXXXT.P.L.<._ 5 j 9 4.I.>.,.%XR.=XUXDXX - l.( ",
"f f C i. .K.Y.tX5X~.` o.O.} 1.).Y.P.G.,.^.2XuXtX).wXgX}.(.rX!.4.o.j %.q X...| &XmX,XXX^.Y.1.4._ 8 8 *._.L.J.oXtXT.jX=Xg.# +   @ ",
": f C i.7.P.+XdXyXK.] ' } <.wX+XY.J.~./.2X<XhXeX`.HXgX_.jXrX6.&.%.x $.&.-.=.E.nXsX;XoX^.P.<...9 8 8 _.:XP.@X3X3XXXT.}.e.M v @ , ",
"G f f p.r.E.`.wX|.<...} 1.'.FX4XT.OX4XdX5X5XFXXX+XrXhXrX|.W.g.0.0.%.&.8.5.(.yX4X>XOX$X).K.6.] _ 8 !.FX;XOXuX<X<XXX).=Xe.t H G C ",
"F U I 0.;.K.L.U.=.;.;.<.'.aXGXaX<X9X9X8X1X9X3X@XtXiXhX`.Q.{.j.p.p.O.h.W.I.Q.~.^.T.^.eXR.1.| ] `  .gXGX8X8X1X6X<X#XXX[.e.a.E U C ",
"Q ! M w...6.I.=.| =.G.E.pXnXmXvX8XqXqX8X9X5X5X3X2XiXtX=XJXx.0 5 9 @.].:.:.<.1.H.H.`.|.>.` ` } } rXFXnX8XqXkX9X<X3XXX}.j.I ( ! N ",
"Q ! a.w.3.8.8.| | K.E.,XGXmXmX0X8X0XbXkX0X6X5XuX2XiXrXgXIXc x %.O.@.X.} ` } =.>.K.|.>.| 9 _ } &XMXvXbX8XzXNX8X6X3X+X{.p.h U P < ",
"N / Y 0.3.W.8.*.1.~.,XmXmXvXbXkX8XlXAXxX8X6X5XuXiXdX=XfX+.f.Z.d.q ' q o._ } ;.<.W.5.| ` _ ` &XnX7XVXkX8XZXxXqX;XXX|.r.+.M z.M.N ",
"3 F m %.6.U.I.>.H.oXkXbX7XkXNXzX7XlXSXcX0X9X4X:XeXrXHXh.p.d.f.l 0 o.%.%.O.4.<.<.<.;.| } ` =XnX,XzXBXzXqXzXBX1XXXL.Q.6.' a.C.V.F ",
"# O y O.I.(.G.G.Y.,XzXBXlXVXVXzX7XcXAXcXkX;X'.|.(.|.{.g.Z.I i.l %.$.o._ -.<.1.1.2.*.} ` 6.FXqXzXSXxXlXzXBXbXoXY.1.6.6.@.f.z.M.f ",
"# # O $.W.U.I.K.Y.oXkXVXNXNXlXcXcXAXAXAX,XG.!.W.=XI.7.j.y.x l j $.#._ } 6.5.G.1.>.=.....&XFXCXNXlXzXzXlXNX7X~.G.| :.<...i E E 1 ",
", n o 6 q.X.e.;.G./.dXpX,X,X8XxXcXBXAX7X..| } 6.[.:.g.p.%.w w o.o.O...6.I.5.<.>.2.>.>._.,XnXsX1X1X;XqXbX9XoXG.=.| I.5...0 s.M.K ",
"> . : O j q.[ ` K.|._.,.L.~.8XlXBXKX7X ._ ` -.W.8.h.k.u.$.&.&.$. ...I.Q.<.9.*.;.2.2.K.P./.4X/.^.T.^.vX0X<XY.>.*.,.Q.5.` i s.M.2 ",
"% ; X s.Z.x 0 O.h.].} | >.~.4XvXGXMX3.` ' X.8.[.8.7.g.7.@.7.e.4.6.I.Q.2.} X.` ..:.| :.*.`.~.G.1.>.L.uXuXT.J.,.,.R.).-.8 i.s.G ; ",
"$ V f N.s.z x %.q.{ 9 ` ;.P.oX>XaXE...@.@...U.(.I.8.7.7.8.W.6.K.(.Q.2.} 9 8 _  .{ _ _ | I.>.| } } K.eXXXY.J.H.Y.@XY...i z C G 1 ",
"; 2 n E F.Y M 0.e 8 r 9 4.5.L.+X`.1.4.7...5. XR.U.I.I.K.U.L.P.rX|.5.` 9 5 r [ 9 5 5 9 X.X._ _ _ } 5.R.T.J.J.T.$XeX1.' u Y v.L < ",
"L 2 X : UXDXg M w l l 8 _ *.G.`.R.K.8.:.<.(.`.Y.P.L.L.~.P.~.dXpXE.} 9 w w j e 5 6 w #.{ 9 8 q o.@.-.J.).J.T.$XiXP.| q I M.) $ J ",
"S = 2 X N.D.Y i.i.i.h 4 5 } H.).R.U.I.G.P.eXXXT.Y.Y.XXOX:XdXhXE.} 9 e j j 6 4 h l %.[ 8 5 0 p p 0 ` L.T.T.OXuX@XG.` u E 2 . N J ",
"% = 2 o f f Y Z f.I g 4 w ` L.).R.Y.P.P.^.>XOXXXXX@XuXOX;XhX!...8 j l y.c 4 6 z %.%.5 5 w u x p 5 _ _.XXOX3X$XP.| [ c G 2 < 1 % ",
"2 2 : 1 N ~ g Z Z Z k 6 e _ H.+X^.T.R.T.XXOX#X#X3X6X9XvX4XE.} $.d z Z I h 7 c h l 6 4 a Z x %.j 8 4.:X#X3X$X^.1.{ l I G , > $ $ ",
", : ; ; 2 V v.s.z Z Z y.0  .P.@XOX.XT.@X2XOX#X#X3X6X<X1X&X` q l x Z Z g 6 7 7 h a O a z z Z h 0 ` !.2X5X$XT.G...%.N.N.U v 3 2 ; ",
"G ; , < 1 ; L m.Y g Z y.8 ` E.2X3XOX$XuX5X6X2XOX#X2X>X`.3.9 j h g g Z a 7 7 4 4 7 a k g h c t +.t.7X5X3X@XJ.*.$.s.s.( L L 2 . @ ",
"G 2 . 2 F 1 > ) PXfXa l e } P.uX9X1X1X;XqX9X2X.X@XXXP.5.] e h h a g d 7 4 4 4 7 h k a a h u p @.MXsX5XoXY.1.] 4 O & N 2 < 2 L o ",
"V P v H 1 X X + C.d.d.d j ] G.aXmXlXlXzXCXaX^.T.Y.1.*.` 0 t 7 5 w w 5 4 5 w a x x h d d h 0 _ gXFX4XoX~.=._ 8 x H L <   X X = $ ",
"& F 2 2 V ; $ ; o # f.f.j _ K.>XmXkXNXCXnX/.~.P.>.| ` [ 6 4 5 e e 0 5 5 w l l Z 6 5 5 5 r _ *XjXyX:X~.<._ 8 i.A.C.) R n + X = S ",
"/ . X ; 2 P P ; # I I d.6 8 <.`.:X/.,XsX4X@X`.1.| } _ 8 6 5 _ &.[ 8 w 6 y g w w 5 5 4 8 _ {.wX+X).~.;.9 0 h s.S.M./ T F 2 , - 3 ",
"/ 2 . + 2 U S 2 f Y Y s 6 q } W.L.H.oX4X:XwX(.<.-._ e w 0 $.h.X._ 5 6 7 7 u e e w O 4 5 } Q.(.Y.H.=.9 p g o f L ) L 2 2 @ ; S 3 ",
"2 2 2 , : G / z., s.N.~ Z w _ r.W.5.wX:X5.5.K.3.+.5 c 0.O.e.h.} 9 5 4 6 $.7.X.{ 6 M y 5 4.W.=.;.} _ u M m X X   X S = . & o ; T ",
"2 P F , F 2 ) V.G R F.N.G g o.&.h.;.Q.<.} ..r.-.5 4 M 0.h.r.-.] 8 5 5 e g.h.X._ 4 c a.+.e..._ 9 w h g : f , f F D K K V 1 f : n ",
"2 L 2 ; ; / V.M./ F m.V.( : c i g.h.4._ _ X.7.9 5 h 6 $.].8.@.8 8 w 8 &.e. .9 8 5 u %.q.p.q 8 w o ; 2 2 ; f U ( ( / J ! 2 o : : ",
"2 2 F @ . V P / l.n / m.^ V o i.%.[ o.8 8 &.g._ j j [ e.6.*.8 0 w r O.&. .9 8 0 j e %.p.f.h I g X % / ( L X & P / ^ S > ; o o & ",
"< 2 ; . ; V L S 2 l.v / ^ 2 P F.a.M Y x [ @.{.&.[ $.].[.<.| ' 0 8 8 O.' 8 8 e %.%.r 5 z C B.m., +   2 P F $ & 2 L 2 > - % X 1 : ",
"1 . . ; F / m.C.2 T v K F + m.D.V.s.( Y t o.q.O.o.j.fX[.W.7.+.0 8 8 9 [ q e j d.p.y.i.C X 2 v v +   2 V & $ $ 2 < 2 - b b X & & ",
"X < 2 & 2 L m.V./ , ; L )   W F.C.U , G n a.I c h u q ' e.q.e w 6 w q $.o.j h s.s.M.) ; 2 F F G F X       . $ 2 < @ + b +   . X ",
"P F < . 2 . 2 ( 2 ) / ; n , W M.G 2 < F v v L G Y y h x 7 t a s s 7 5 5 5 x E ( L 2 P / R 2 L ; G f G < .       X .     % ; ; ; ",
"P > L 2 P L ; < F L M.f X o L V.( & D K K / ! V 2 @ Y I M E ~ Q * o y g m m G > D K H @ H ; F L $ 2 F , 2 . .   X & & < 2 v P @ ",
"H > F F 2 2 ! 1 V L R U f   1 L Q % - c.v m.S.M.l.  o g b ( ) ! & V H # R b P B D S m H m R   = < ; + v H , o X Q c.V J L ; R , "
};
