/* XPM */
static char *f7352c4ec58f43f99677a9430604e0d6[] = {
/* columns rows colors chars-per-pixel */
"64 64 256 2 ",
"   c #040403",
".  c #0B0302",
"X  c #0B0B05",
"o  c #0C0C0C",
"O  c #050909",
"+  c #130301",
"@  c #130C0C",
"#  c #180805",
"$  c #0C110B",
"%  c #13120D",
"&  c #191509",
"*  c #0B0D12",
"=  c #120C12",
"-  c #1B0E14",
";  c #0D1212",
":  c #0E171A",
">  c #141313",
",  c #1B1514",
"<  c #151A14",
"1  c #1B1A15",
"2  c #151519",
"3  c #1A151A",
"4  c #161B1A",
"5  c #1B1C1B",
"6  c #260904",
"7  c #380A06",
"8  c #261409",
"9  c #37170B",
"0  c #241C1C",
"q  c #2A1E1C",
"w  c #271814",
"e  c #371A16",
"r  c #2B0C11",
"t  c #1D221C",
"y  c #182117",
"u  c #24221D",
"i  c #2B221C",
"p  c #272519",
"a  c #38241B",
"s  c #362909",
"d  c #1D1C22",
"f  c #191A25",
"g  c #231D23",
"h  c #281F25",
"j  c #371C22",
"k  c #1D2223",
"l  c #1D2624",
"z  c #232323",
"x  c #2B2423",
"c  c #2B2A25",
"v  c #24252A",
"b  c #2B252B",
"n  c #252B2C",
"m  c #2B2B2B",
"M  c #232924",
"N  c #322C2C",
"B  c #372827",
"V  c #2B322B",
"C  c #33322D",
"Z  c #3B3229",
"A  c #2C2D32",
"S  c #252A30",
"D  c #312D32",
"F  c #372B32",
"G  c #2E3235",
"H  c #333334",
"J  c #3B3434",
"K  c #353539",
"L  c #3B3B3B",
"P  c #383937",
"I  c #450A04",
"U  c #570A03",
"Y  c #481509",
"T  c #581607",
"R  c #451A15",
"E  c #591E15",
"W  c #661506",
"Q  c #761803",
"!  c #671309",
"~  c #482619",
"^  c #572619",
"/  c #4D2D0D",
"(  c #782406",
")  c #662818",
"_  c #773418",
"`  c #702B12",
"'  c #452A27",
"]  c #473628",
"[  c #5B3627",
"{  c #423C3C",
"}  c #483A36",
"|  c #553B37",
" . c #4E2C2C",
".. c #673626",
"X. c #783825",
"o. c #69372F",
"O. c #401D23",
"+. c #3C413A",
"@. c #43433B",
"#. c #574636",
"$. c #524428",
"%. c #684838",
"&. c #784435",
"*. c #744C2C",
"=. c #735324",
"-. c #3B3D43",
";. c #443D42",
":. c #3D4244",
">. c #434344",
",. c #4B4B4C",
"<. c #484748",
"1. c #554B48",
"2. c #4E5353",
"3. c #585857",
"4. c #50504E",
"5. c #705448",
"6. c #65625E",
"7. c #78644B",
"8. c #5D6263",
"9. c #676A69",
"0. c #70716F",
"q. c #5C5D5D",
"w. c #861A03",
"e. c #8D1C10",
"r. c #88290B",
"t. c #982A05",
"y. c #893503",
"u. c #9B370A",
"i. c #863819",
"p. c #973919",
"a. c #8D2B16",
"s. c #A32D04",
"d. c #A83809",
"f. c #A63B13",
"g. c #B53E14",
"h. c #B53A06",
"j. c #943A23",
"k. c #853729",
"l. c #A93D23",
"z. c #994517",
"x. c #8E4616",
"c. c #A8430A",
"v. c #B9490C",
"b. c #A94718",
"n. c #B64819",
"m. c #AB551A",
"M. c #B75418",
"N. c #B9580B",
"B. c #B5691E",
"V. c #8A472D",
"C. c #984727",
"Z. c #874A36",
"A. c #875439",
"S. c #985636",
"D. c #93522F",
"F. c #A74927",
"G. c #B74C24",
"H. c #A75527",
"J. c #B95627",
"K. c #A65735",
"L. c #BA5C36",
"P. c #AB4E32",
"I. c #956437",
"U. c #B86728",
"Y. c #B9752B",
"T. c #AA6737",
"R. c #B96736",
"E. c #B77838",
"W. c #9F6E1F",
"Q. c #C9581B",
"!. c #CA4F1A",
"~. c #D0651D",
"^. c #C44C22",
"/. c #C65926",
"(. c #D45C29",
"). c #C75C36",
"_. c #D55A32",
"`. c #C6662A",
"'. c #D6672A",
"]. c #C97229",
"[. c #D8772B",
"{. c #C96837",
"}. c #D86935",
"|. c #C87737",
" X c #D77738",
".X c #E46B37",
"XX c #E77A39",
"oX c #E87330",
"OX c #885744",
"+X c #955B46",
"@X c #946D50",
"#X c #A86C48",
"$X c #BA7958",
"%X c #B1734B",
"&X c #90776E",
"*X c #A76951",
"=X c #C46D44",
"-X c #C97745",
";X c #D87745",
":X c #D0744F",
">X c #EB7A44",
",X c #D8873B",
"<X c #D08F37",
"1X c #F68A3B",
"2X c #E88B3A",
"3X c #DBA43F",
"4X c #AF864F",
"5X c #9A867B",
"6X c #AD8E70",
"7X c #A4916B",
"8X c #CA8649",
"9X c #D88446",
"0X c #D79646",
"qX c #DB8952",
"wX c #D89A55",
"eX c #C89451",
"rX c #E68948",
"tX c #E79749",
"yX c #F69749",
"uX c #E58A55",
"iX c #EA9758",
"pX c #F79757",
"aX c #F88847",
"sX c #D8A854",
"dX c #E7A74A",
"fX c #E7A857",
"gX c #F7A857",
"hX c #F8B559",
"jX c #EEB153",
"kX c #CF916C",
"lX c #EB9967",
"zX c #D4AA70",
"xX c #E9A669",
"cX c #FAAB68",
"vX c #FAB868",
"bX c #E7B677",
"nX c #FCBA77",
"mX c #ECB36C",
"MX c #FDC669",
"NX c #FCC976",
"BX c #FCD879",
"VX c #ECC86E",
"CX c #FED36D",
"ZX c #A2988E",
"AX c #D4B88B",
"SX c #EEBC8C",
"DX c #FAC887",
"FX c #FED887",
"GX c #FED894",
"HX c #ECC98B",
"JX c #FFE58A",
"KX c #FFE698",
"LX c #FFF396",
"PX c #FCD9A6",
"IX c #FBEBAB",
"UX c #DCC496",
/* pixels */
"H H 5 z z 5 5 5 5 5 > c H o O > b 3 @ > 3.m z 8.-.  O o X z v v 5 > o 5 c % &X1.] 6.1 u t t > 0 , 0 5 ; 5 y $ L 3.3.H 5 n ; b F ",
"L L H L L v o > 5 5   o z > o 5 m b L 5 5 3.P H d > o     X J N 5 o > . 0 i ZX8 5X6.& u M 5 > 5 x , > M n 4 n c ;.,.<.H n ; v N ",
"v H H >.>.m > > 5 > o > 5 c > > t t t @.H m L 5 h 0 , X   . 8 } J b , & . @X6Xs ZX] p V < < v A D d > < O 4 K J 0 u 3.>.5 , 5 V ",
"H H c v 5 5 5 o > >.m m m z 5 5 l l X X <.3.,.{ F J z 1 X . ~ 7.| Z a # / AX/ 7X6Xi C V y M b g > = 1 > 2 3 ;.J >.@.c C J x > P ",
"L L >.3.L > 5 5 H >.,.>.z v z z > 5 5 1 o > G L J g K :.Z + ..#X+X@X%.s AX=./ UXZ c A 2 k c f 3 @ i i x . 3 ,.L x L m m >.J > m ",
"3.,.L >.L > > > u H ,.,.z z v z z c z v 2 O o   v K n m 1.%.%X-XS.#X4XAXzX` AX6X& C v d m t 0 B ] #.#.x 0 @ D K 2 H C V m z v d ",
"L L H 5 5 5 z > o > 3.,.> 5 5 5 5 b b z 5 o v 4 m K t p 5.@Xx.H.x.4XDXbXW.zXUXs   z m K t % Z %.+XA.5.J P 4 O G v > z u V n f g ",
"L v m v > o > > v c P H z 5 5 o @ 3 = * 3 > > % 5 p p %.6XzXxXnXGXGXsXY.eXHX@X8 & @.1.q + #.%...V.#X@X#.C y l G A d 3.>.n l v n ",
"c v z c o o o z m 3.L z H 5 c > o o > m z v X . + #.IXIXKXKXDXDXwXY.|.0XfXbXD.#X#XOX~ 6 ~ 5.Z.) *.$XzX[ Z c V L g 3 q.9.V M < t ",
"v c H H 5 v z 5 >.>.L L >.m 5 m c   1 H > 5 0 . 6 AXGXzXeX8XwXwX|.|.tXcXcXY.R.T.K.D.*XzX#X*.#X%XT X.SX*.] Z x u 0 0 f L K < c < ",
"c H L L c > v m H L z L H z L ,.+.y 1 5 v ; % ] I.HXW.<X<XY.8XxXmXiX-X{.-Xm.m.J.E.xXPXGXwXE.eXVXsXeXSX=.%.Z 0 > , 0 0 % , , x J ",
"c c H L H > c L c H m L v 5 H P t y < 5 d 5 0 %.zXwXY.0XvXvXxXnX8XR.F.r.u.`.}.|.|.Y.E.U.<XvXJXIXJXsXzXzX@X7.%.a 8 u , % , , 3 N ",
"z v H c 5 o H L H L >.m 5 c v 5 k < % > 0 C a 6XDX8X<XtXnX8XR.y.b.uXF.r.u./.`.rXuX`.m.`.dXjXVXBXfXVXFXHXsXeX#XOX6 q < 2 2 * g x ",
"> m c o > > H <.L L L H c z m z 2 5 , C i . @XPX8Xm.`.|.|.U.m.( qXp.r.p.).G.{.rXn.f.Q.rXvXtX<XfX0XvXKXJXJX0XT.#XR q c < : * 5 z ",
"5 z > > v c c L >.H >.,.>.c 5 c v 2 > 1 ] / bXDX XM. XU.0XmXU.lXK.W p.p.p.b.H.b.c.G..Xn.c.`.rXiXrXiXgXhXFXvXNXHX=.s # X t ; > > ",
"G o o 5 > 5 z v m L ,.>.,.,.H z 3 0 u $.4XzX-XU.{.`.U.qXcX8XnX%XU Q r.Q p.F.F.b.u.G.^.d.g.^. XrXJ.`.Q.[.tXDXKXIXHX4X7.8 X 4 $ > ",
"; ; - i C M v K K ,.;.,.3.3.N B x B Z AXbXwX|.c.J.uX;XlXE.xXlX( a.P.r.Q p.F.b.u.f.f.f.d.n.J.n.G.J.{.!.'.'.tXFXKXKXzXzX@X, * > % ",
"5 > x B +.m g K >.L 2.0.2.+.z B a 7.zXGX8X].`.b.u.b.b.m.qXxXW W a.p.a.j.i.i.C.C.K.C.=XL.p.p.F.G.G.f.g.v./.n.,XNXNXNXmXI.#.:.z t ",
"v > x N k m D K ,.9.0.0.<.2 o # @XHXDX9X`./.{.M.t.n.J.J.qXi.U Q ( Q ( i.) E &.OX&.) X.S.i.( F.F.J.n.d.d.g.f.{.9XsXFXKXzX7.Z 0 d ",
"1 u m c :.K ;.N 4.9.ZX>.f k c 5.HXmX9X}.}.{.J.J.t.n.f.{.z.( %Xr.i.:X*X&...7 ' w # 6 6 7 Y T _ $XlXf.n.s.s.u.d./.|.sXFXKX*.6 0 x ",
"o u 3.>.,.2.m N L q.H 2 A N @XSXxX].z.G.L.H.R.z.t.J.{.R.y.8XuXH.K.*XOX5.e w x g g , w ' a R Y Y S.F.;XG.f.M.d.d.m.|.8XGXSX@Xs & ",
"; H 6.9.>.<.m C c u g v b q @XSXE.b.H.p.u.R.|.b.J.{.{.z.iXxXH.x.A.[ 6 e 1.g b A v A 2 b c B B ' 7 U K.:XJ. Xn.d.c.{.U.fXDXGX@Xs ",
": n ,.J H H 1 1 x > d 5 x ~ S.8XT.T.i.H.].rX,XrXM.b.J.`.xX%X_ +X[ a #.0.Z x v A v z m v m H D N B e I i.-XrXn./.n.J.|.fXNXDXbX4X",
"n v 4.x > v z z z z k z Z [ $XH.( x.K.-X|.N. X;Xc.b.rXuXz.x.) 9 ] 6.&Xx . , c > z u v v A n G n g F ~ I z.nXn.n.).J.,XhXNXmXxXE.",
";.v z c u c m A n m C Z [ @XT.y.U.;X;X{.R.L.R.-XM.J./.b.u.-XkX6X5X1.0 @ 1 o 5 5 % X z 5 z n v m n 0 w R T lX{.d.^./. XgXNXsX0X8X",
"{ { 5 < 5 z G v , , a / I.T.H.;X;X9X=X%XD.` C.|.`.b.{.=X=XkXOX~ i 0 c z   5 ; z 1 z > > 5 5 2 5 m c % w ^ D.;X^././.`.[.MX0XsXFX",
"{ J z 4 z n l 5 8 %.*.T.8X|.iX;X{.qX6X%.+ *.$X-X;X;XC.k...[ 1.p X z c v k o > t 5 v H c 5 1 o @ N J u X a ..qX;X}.M.'.].hXhXmXKX",
"N 5 3 5 5 M 4 i &XzXkXqXrXpXuXuX8XA.6 e ] @X8XuXiXR.V.OX&X5.C P z t z 5 A k > $ o > z H L z k > C C @., + [ xXrX XrXXX[.rXfXBXFX",
"5 5 5 c < 4 5 Z kX8X{.`.tXrX{.K.A.9 + 8 *.%X|.rXcXSXAX6X6X5X&X6.<.k z n A n L v X 5 , > H m 4 > 5 m P 0 . e $XqX9X|.`.`. XgXMXFX",
"5 z z N z t 2 | zXqX`.U. XR.S...~ 6 e OX$X-XrX{.E.V.[ 8 + a @.,.<.,.k o n K H >.b X 5 > o K K : k > 5 x w ~ I.R.H.m.`.M.'.gX0XNX",
"z d 5 0 u u 5 ] SX8XH.R.K.+X5.w + 6 *X$X=XqXz.K.&.~ ] p # B J A H 6.z z ; H <.A >.m o > 5 z c ; : k H b x ' A.R.z.U. XXXM.[.tXgX",
"z H b x p 1 b & 7XzX%XA...%.Z , , ~ %X:XR.z._ &.' Z P z @ N -.A C <.L c 2 * H L H L z O > 5 z ; k n H x 3 a +XK.-XM.c.cXrX].,XvX",
"S A K x i u c 1 a 5.#.} , . @ w i [ %X9XR.kXOX8 , C C x @ = G P c 3.0.>.v 2 > z ;.K m v = = v d : G J L > ' *XK.iXM.d./.hXjXfXFX",
"A G L N 0 u t m , u +.H 4 2 @ , } %.8XiXE.$X| K z z c } h > H P C 6.0.2.;.b h x { 4.{ { g - d K n * N C 5 8 A.=X{.M.;Xn.].MXBXJX",
"4 H D x A A * 5 c 1 t 1 > g b , a &X%XkXi.7 . z H z 1 N A ; c V V q.0.4.g o x } a | |  .j j Z % 1 z > 2 K B D.R.J.g._./.N.gXMXBX",
"4 m , > d f v d 5 $ ; > 1 z x 0 w 5.$X6X$X6X0.5 5 m c m n * 5 @.P 9.0.,.b # w ' ~ ~ ~ R [ | 6 . & N b v S p D.uX/.g.g.}.yXhXdXMX",
": ; % @ A -.d D v v * G >.5 0 % X q ] #.e ] J m o > 4 v A k 5 @.,.3.8.L g j  .^ Y Y ^ ..I ..^ + w 4.H O V ] %XrX`.'.'.M.vXvX,XrX",
"d >   X - 0 q 0 b 2 * l 4.P u z v 5 c c <.L N 1 5   O 4 5 5 o z 4.<.m o x | o.T T T ` _ T +XS...9 ' x 1 & $.wXrXQ.'.}.Q.0X9X9X X",
"> z % . + # 6 w @ = o d L c m z G :.n O :.,.{ { 4.c > > 2 5 o X o o * > 0 ' ..T ` i.p.L.P.j.S.$X+X^ ' 8 8 $X|.v.'.'.'.rX9X`. X[.",
", > > &  .) ^ [ 8 @ = K +.+.<.-.v v n : k ,.,.{ 3.3.,.d > 3 5 , = > 2 c q 6 ^ ` i.p.J.).f.p.r.p.P.V.A./ A.SX|.M.[.'.Q.`. X`.M.}.",
"o $ o w ) a.Q Z.9 @ . , L +.,.,.K g 3 = > d 3.4.4.3.,.4.c O 5 H m 5 > 0 w e ) ` a.t.n.G.G.b.p.y.u.z.z.8XbXFXiXM.~.'.~.v.M.rXb.;X",
"X u 5 r k.e.l.C.Y + + 8 + C ,.<.>.N g - O d 4.9.<.q.@.<.<.V O d H c 4 > w [ X.C.p.f.g.^.{.L.F.H.m.m.8XDXJXfX9XXX'.~.oXQ./.n.u.).",
"& 0 0 6 ) e.p.p._ *.V.@X| . L ;.H J 5 @ x m n 3.0.,.9.+.+.2.A o c m < % x %.V.P.G.n.n./.;XJ.u.G.).b.x.T.wX|.rX X'.[.XXXX'.c.u.F.",
"B w , e ) j.e.r.F.=X:XS.6 + . 3 u x . . u 5 K ,.8.9.4.0.2.P >.d 5 L 4 < u ~ D.P.F.M.M.'.rX/.u.c. XR._ T.8XB.rXpXXX}.M.M.rXJ.r.j.",
"g , & %.) ` a.r.b.f.b.p.Y # 8 . X   1 X X < 5 :.2.3.0.2.9.3.N 0 H ,.P ; M ] *.S.H.|. X[.XX/.v.v.[.,XsXvX,X~.aXaX}.M./.{.9Xx.( k.",
"* > & ] o.` a.u.n._.s.r.Z.7 5.a . + & i w X > z L >.3.0.9.<.q # N L P < C ] / I.8XnXcX[.[.[.Q.N.3XMXBXNXgX2X[.[.`.M.;X;XK.` T Y ",
"d 3 & 8 o.k.a.d._.>Xg.w.F.X.R %.r + e 5.1.q 0 @ - @ 3 8.8.3.a e B } c } } ~ _ K.xXKXBXdXjXMXdX<XfXFXFXvXpXyX1X[.`.J.{.p.i.T 6 + ",
"d > > & 9 X.a.d.^.}._.g.l.a.I ..[ Y ^ 5.7.x 0 Z 5.e @ o L } ~ ) &.[ 7 ~ ^ &.j.y.8XFXMXdXjXBXNXNXFXJXsX0XU.,XvX[.rXm.F.j.! R 8 > ",
"c > , w 6 ) F.t.!..X.X.Xg.w.U X.%XT.W Z.' 0 , | +X..a , # R T Q p.:X-XD.p.G.s.t.N.[.2X2XjXVXVXBXJXJXjXdXdXdXvXgX{.r.j._ U Y w o ",
"u 1 > i e &.K.f./.oX'.(._.f.( T.cXuXr.S.~ 8 9 OX%XC.A.~ 7 E ( u.d.v.|.lX>X^.w.n.2XyXhXhXjXVXJXLXJXVXMXhXMXhXMXcXb.r.` U I 7 B o ",
"0 b 5 x w ^ S.L./.}.}.'._.^.;X{.pXtXL.p.T ) K.-XH.y.L.:Xj.a.f.^.s.d.9XlXuXM.M.,XvXhXjXMXJXBXVXBXLXBXCX3XdXMXgX Xb.a.T I 7 e , > ",
"3 0 d 5 , 9 V.R.{. X/.'.!.!.(.'.[.Q.n.Q i.:Xb./. X{.^._.).u.J. Xd.`.nXDXcXtXiXgXMXNXvXMXBXBXBXsXBXLXCXjXhXjXY.z.r.` Y R r - = 5 ",
"b = * ; 5 a ..i.L.b.s.d.(..Xh.v.~.aX/.w.}.}.n.pXcXpXd.n.].y.B.gX`.|.GXGXKXLXNXtXyXgXhXhX<XjXMXdX<XMXNXjXMXxXE.C.k.Y  .i , 5 2 5 ",
"H 4 ; ; > B ~ ) j.P.b.n.^.XXh.Q.pXcX(.s.}.(.pX}.'.M.u.iXNX,X,XFX,XY.mXFXFXmX,X[.,XyX1X[.[.yXMXdX3XMXtX].iXT.W ^ ^ ' q 1 5 > 5 t ",
"< t d 4 4 u ' o.Z.C.P.J.n.}.>XXXXX>X.X^._.'.1X[.t.Q m.vXFXvXvXnXyX[.].iXrXtXXXoX1X1XoX~.~.1XgXMXMXjXrX{.K.*.6 + . z > $ X @ $ H ",
"y z z 2 v 5 ] 5.[ &.V.P.L.{.'.(.}.}._.h..XQ.XXXXs.M.vXBXdXtX2XyXyX2XaXaXXXXX'.oXoX1X1XoXoX'.rXNXhXdX|.F.k.Y r h z G M t , 5 5 5 ",
"4 m 0 , > C 3.@.Z 9 %.X.V.p.f.g.}..X!.'.XXv.(.'.!.aXDXFXrX'.'.!.'.'.oX~.XXXX.X.X!.~.aXpXXX'. XlXqX-Xp.k.E R  . .' 0 m V 5 o > 3 ",
"4 5 z @ @ 0 M H L c ] | [ _ r.f.n.n.(.}.'.t.g.^.n.;XqXuX}.v.Q.(.Q.oX'.XX>X'.>X'.h.t./.>X}.n.z.i._ _ T ^  .O.j j r w u < $ o = - ",
"> 5 > @ > g m k 5 K z J ' R U Q p.L./.b.{.u.t.e.w.p.F.F.J.t.u.d.'./.(./.{.J.;Xn.t.u.J.J.F.F.` Y R e 9 a i , , q h q 1 > O o 2 3 ",
", @ o > v K ,.4.v H d m 0 r o.X.W K.( Q ( r.Q e.Q Q r.Q j.F.F.p.b.J.L.r.( C.j.r.w.w.r.r.W W I R &   % u < O ; 1 0 0 > 5 4 o O , ",
". , 5 ; d A ,.3.N 0 3 b H x | o.7 ^ I I T U U U ! U ! U ! ! T W i._ X...^ ^ ..k.k.W U ` E Y a x x X O       ; > , X > k O O o X ",
"x u 2 * 4 * 5 L z J J > m <.0 8 e e 9 7 7 7 6 7 R I I I Y I 7 R ^ 9 e 9 e a  .^ E Y I ^ | e B o v z k ; $ O     X X o O O ; 1 @ ",
"b 3 m 4 v c ; < 1 m <.b O > x 1.{ . B B B } ;.q w q a B '  .' B , @ w j j i 0 w B B e e B , 5 V X 1 z 5 5 o O   + - X > < 5 D = ",
"b 3 z z 5 1 V < u c F D 5   , c n o = J b 4.3.<.@.  @ 1 q } { F * k b - F 0 M y t 5 D D b F   O < $ > z v 5 > . B } 0 z n < D 0 "
};
