/* XPM */
static char *cf2731d69f5b4fb8ed10ffc63b8c82c154hRHS4vJUL6Xe3l[] = {
/* columns rows colors chars-per-pixel */
"64 64 122 2 ",
"   c black",
".  c #010101",
"X  c #020202",
"o  c gray1",
"O  c #040404",
"+  c gray2",
"@  c #060606",
"#  c #070707",
"$  c gray3",
"%  c #090909",
"&  c gray4",
"*  c #0B0B0B",
"=  c #0C0C0C",
"-  c gray5",
";  c #0E0E0E",
":  c gray6",
">  c #101010",
",  c #111111",
"<  c gray7",
"1  c #131313",
"2  c gray8",
"3  c #151515",
"4  c #161616",
"5  c gray9",
"6  c #181818",
"7  c #191919",
"8  c gray10",
"9  c #1B1B1B",
"0  c gray11",
"q  c #1D1D1D",
"w  c #1E1E1E",
"e  c gray12",
"r  c #202020",
"t  c gray13",
"y  c #222222",
"u  c #232323",
"i  c gray14",
"p  c #252525",
"a  c gray15",
"s  c #272727",
"d  c #282828",
"f  c gray16",
"g  c #2A2A2A",
"h  c gray17",
"j  c #2C2C2C",
"k  c #2D2D2D",
"l  c gray18",
"z  c #2F2F2F",
"x  c gray19",
"c  c #313131",
"v  c #323232",
"b  c gray20",
"n  c #343434",
"m  c #353535",
"M  c gray21",
"N  c #373737",
"B  c gray22",
"V  c #393939",
"C  c #3A3A3A",
"Z  c gray23",
"A  c #3C3C3C",
"S  c gray24",
"D  c #3E3E3E",
"F  c #3F3F3F",
"G  c gray25",
"H  c #414141",
"J  c gray26",
"K  c #434343",
"L  c #444444",
"P  c gray27",
"I  c #464646",
"U  c gray28",
"Y  c #484848",
"T  c #494949",
"R  c gray29",
"E  c #4B4B4B",
"W  c #4C4C4C",
"Q  c gray30",
"!  c #4E4E4E",
"~  c gray31",
"^  c #505050",
"/  c #515151",
"(  c gray32",
")  c #535353",
"_  c gray33",
"`  c #555555",
"'  c #565656",
"]  c gray34",
"[  c #585858",
"{  c gray35",
"}  c #5A5A5A",
"|  c #5B5B5B",
" . c gray36",
".. c #5D5D5D",
"X. c gray37",
"o. c #5F5F5F",
"O. c #606060",
"+. c gray38",
"@. c #626262",
"#. c gray39",
"$. c #646464",
"%. c #656565",
"&. c gray40",
"*. c #676767",
"=. c #686868",
"-. c DimGray",
";. c #6A6A6A",
":. c gray42",
">. c #6C6C6C",
",. c #6D6D6D",
"<. c gray43",
"1. c #6F6F6F",
"2. c gray44",
"3. c #717171",
"4. c #747474",
"5. c gray46",
"6. c #767676",
"7. c #797979",
"8. c #7B7B7B",
"9. c #7E7E7E",
"0. c #898989",
"q. c #8D8D8D",
/* pixels */
"M M e t s 1 1 t 7 t = f Z =   7 f 3 O e ^ Z 7  .Z     = 3 t k e 7 1 = 7 s t e e f e t k t 3 7 t 7 1 t 1 t t O F } ^ k t k = f k ",
"M F x Z H k 7 = s e   = f 7 = 3 e Z x = t T F M t 3 1 &   1 x x 7 = & = e k s & x k s t t t 7 1 s t & e f 3 f x Z P T x e 7 f k ",
"x x f Z F t 3 1 3 e & 1 t 7 3 7 s 3 M P x M x e e e 7 O     7 f M t 3 O   3 f t k M k f s e 7 f f 3 3 7 3 e x f t k ` ! t 7 1 x ",
"t Z M f e e t 1 e M M f t e e 7 s t   & ! } Z H M k t t 7     e M Z k 7 = & 1 7 t Z x s s e e k 1 & t 7   e H x P x k x k x 7 x ",
"P H H ! Z 3 3 7 Z T ^ Z s f s 7 7 t s 3   7 F H x k f M M =   1 x T M e t 7   O 7 M f 1 e k e 1 = 3 1 k & & ` Z f T x k Z F e f ",
" .F x ! F 1 1 7 e x ` P t s s t s t e s 7   O   f k f x T F 7   e T H s f s 1 = 7 s t t s t e f x 1 7 Z t = k M & x x x Z s = s ",
"Z H x e 1 e s O & 7 ! T e 7 e e e e f f = 1 k = k x f k ` -.H &   e P ^ T M t 1 1 t k k t e k T P = k Z f e & x M 7 e e k s 3 s ",
"Z f s k 7 O 3 3 k e F Z 7 e 7 = = t O O t 1 = 3 7 s s s F } H 3 1   t } ^ Z k 7 & M H 7 = M T M f t f Z M t s M s 7 #.P f k t f ",
"f t s s 1 1 O t Z ` M 3 Z 3 t e = = & x t 7 3   3 e k t t x s s 1 &   k -.k t P t 7 F 3 e ^ T Z e F M M H f Z x e 3 ! >.M 3 t 7 ",
"e x F f 7 s t e k ^ F F P f t e s e e f 7 e 1 & 1 & 3 s F Z t M 3 1 O 3 H M f P T = k t H T H H e M P M F f s t t 1 e x x f f t ",
"s x F F x 7 s k x Z 7 Z k s x ` Z 3 7 s 7 7   3 & & = t F f = t 7 e 7   = k f P F t ^ x H H ^ ` s k ! M H F e 3 1 t 7 1 3 7 e M ",
"f f x H M O t F x Z s F e t f Z f 1 3 e e e 1 e 3 e e 3 3 3 = 1 1 f k 7   3 7 k M x ^ e f P ^ Z F f T k P } s 3 3 s 3 & 3 3 3 k ",
"7 x M t 7 = M F f H P x e f k 3 3 t 3 3 t s M k k s s 7 = t k 3 & s f Z e 3 3 e e t Z s 7 F T ! T f H s F ` f 3 7 e e 7 3 3 e f ",
"3 k f 1 = 7 Z F F Z F k f t k f e 7 = t k 3 M P M s f Z Z F F 3 = 3 & f k s M Z = 7 k k = f Z ! H f Z t s x t 7 e e s t = & 7 s ",
"t 7 3 3 3 s f Z P M H T T s 7 t s 1 1 s M 1 t ! Z Z s Z ^ P M e 3 =     7 s Z P s 3 1 1 = t e O x s s t e 7 f e f s e 1 3 e 3 & ",
"f = & 3 7 k 7 f k Z P P ! ! M f 3 e x e k f s F T } s 7 F F Z H 1 1 7   = 3 3 s e   & 3 s s f e f t 3 t s 7 Z s = x x 1 = 1 1 3 ",
"3 O 3 t M f k x M P P ` ^ ` Z t s t x Z k e e P H P ^ k x k k H H 7 1 e & O 3 = & 1 & & e f f f M k e 7 t e 7 s & t t 7 & & 3 1 ",
"7 7 e x s f t x P Z H -. .F t k 3 3 M x e e t t M ! P Z k f x H Z s 1 t M t & = 3 e 3 3 s t 3 1 t t e 7 7 7 t k t e M 3 7 k t s ",
"e e s M f M f Z ! #.3.>.F 7 1 t e 3 M x 3 t k e e H x P M k k k Z F s 1 7 f s t = = O = 7 7 3 7 7 3 3 3 1 3 7 3 7 1 x t k x 7 7 ",
"7 1 x f F Z x x ! 8.9.T 7 7 e 3 7 1 f f 7 e t s 3 s t M M M x f t k H k = 7 k 7 7 = & = 1 1 = 3 3 = 1 3 3 e 3   e e 3 e e 7 e e ",
"7 s ` T ! T x k P ! H s t x x 7 3 s x f f s e x t 3 t 7 s k M F k 7 k H t = 7 t t 7 e s s e 3 1 7 = 1 7 e f s = 7 k 3 e 7 Z x e ",
"= M &.#.P ! s k f s e 1 f M M 7 t F Z e f k s Z f 3 x 7 e e t k T x 7 7 s t t M t e t k k k x k e e e e 3 e s s = t f 7 t -.F 7 ",
"& f ^ H t M 3 s e t s 3 f x M e e k k 7 e s e f t 7 k x s e e 1 x Z s 1 e x k t k s f f t k x f s s t 7 3 1 3 s t e s   e } ! F ",
"k k ! 7 7 f t s s 3 7 e Z M Z x 3 1 f Z M f 3 3 t e 1 Z M Z M 7 7 7 f e   3 f 7 e e f k f x x t s s e 7 e 1 = e t e t 3 M M  .} ",
"H f e s f s s x f s M x x H Z Z 1 & x P F ^ H 1 = 1 = H P Z k f f f f & 1 1 7 7 & 1 e e t s f f s f 1 e f 7 3 1 k x e 3 f H ! } ",
"H F f 3 7 k k e 3 7 k x M P H F e 7 Z F s s t 1 3 e = k ! ` H t s t e s 3 1 & f 7 7 7 7 7 7 7 3 f t = 7 s 7 3 7 H M 7 O 1 e k H ",
"F x e 3 e f f t 7 e x x M H H F = e x s 7 f x x e t 1 7 P ! P k 1 s t f 7 7 = e e t s f t 7 1 1 x k f 7 e t e f x H f   & x ! ` ",
"f e 7 e t t e e f f x x x F P H 1 = 3 7 k H F T Z f 3 & x M F H 7 s f e f e e 1 & 3 f M x s 7 3 k Z H 7 & e t f s Z k = O t M M ",
"7 t t e e e e 3 t s f k x F T H f = & t H Z f Z ^ M e O f M F F H k 7 t Z s k f & = 3 t k k t 3 e s M 7 O 1 = 1 t 3 e f 7     3 ",
"e e t s t 7 e f e t t f k M Z f 3 3 7 e x H x f H H Z 1 1 M F x ! P 3 e t M F F k e & & e M k 3 e 1 t f e 1 O O = O t F M 7 3 e ",
"s e e f s 7 t x s s e s f f k 3   3 t 1 e F Z f f Z P t   k Z x Z ` f 7 = k H M H x 7 O 3 k k 3 e e s x s 7 7 =   1 f M x k f 3 ",
"t x k t e s s 7 k f e t s f k 3 e = 3 e 7 7 7 s x f Z f & x Z x x ! F s e = x x x M f = & e e = 7 k x f 3 3 k 3 & = s x k x x t ",
"x k k f t t s t e f T F 3 & 1 7 s s 1 f f x k 7 7 f F f & = k Z f  .>.H f 3 3 7 Z Z f t & 3 7 s 7 t F P 1 & x 3 &   = s k x x t ",
"s x M k t e t f 7 s F M 7 1 1 = f 1 = k & 1 M x k f t x s 3 k Z x  .3.! H f s s F ! H M 3 7 e k s 7 f f t 7 M 7 1 1 = 3 e f f = ",
"e x x s s e 7 t e t t t 7 e s e t f 7 s s 3 1 e x k 3 x x & s M M  .3.P t & t Z k H H x 3 3 3 e t 3 7 1 M s x e e t 7 e k H H 7 ",
"7 s 7 3 f f e t t 3 & 3 e e t e e F t & t t & 3 3 k f x s & e F x  .8.T e   1 e 3 e t 7 = = & O 7 k s 3 M f t t f x t f H ` ` s ",
"3 7 & & f x f k f 7 = k F f e 1 = e f e e f s e = 1 s t s e e P ` #. .M s s f 3 = 3 e 7 3 & O   e T x e s k 1 t F T f k F H H 7 ",
"1 7 = & 3 e e f s 7 & x T k s t 7 s x k P H k s s   & = e t & s T Z k = e Z T M e t f f t & & = 7 F s 7 7 M 3 k  .>.H M Z M Z 7 ",
"3 7 3 & O O = 3 & =   e Z k x k F F f = P ^ Z H ! t 7 1 1 7 & & = & 7 7 t f H Z k t f k k = = 3 3 s e 7 e x t F -.0.} H F Z P t ",
"7 3 1 &   O = = O e = f P F P Z t e k = s T ^ F #.} P s 1 e s 1 3 & e t e 3 x M M 7 e s M 7 3 7 e e k f f k s P } q.#.H Z Z P e ",
"= 1 1 = 1 1 1 3 1 & & e Z P P P M e 3 1 & f ^ ` ^ ! ` H s 3 1 x f 3 1 e s 7 1 7 e 7 3 1 7 t e 1 1 e s H x f Z ^ ` 8.} M F M t 1 ",
"1 7 7 1 = & = 7 = O     1 k P ^ Z M t = = t H #.H #.M ^  .7 1 3 Z k e 7 e 7 1 3 e 7 = O O = 3 3 1 e k H k Z ` T P &.F M M 7 t e ",
"1 7 7 1 = & 1 e 3 3 =     3 k Z M F e & s k x } -.` -.Z M } t 1 7 s 3 = t t 3 7 t e 1 O   & 3 e 3 s F s & k >. .7 H T t k P t 3 ",
"s s e 7 t s s f t t 7 & O & = = e s = & s f f T &. .T &.} H ^ 7 t Z f 1 f x t t t e 3 = & & 3 e 7 3 x H k 3 H ^ t f F x Z Z 3 t ",
"3 3 & & 3 7 7 t x s 3 = = O O O O = 1 1 = = e F ` } &.-.-.! e t M ! x 1 s Z M Z s e 3 = O   & 3 7 M x 3 f Z P f M ! s M f   t t ",
"1 7 7 7 t s k Z F f e t s 7 = = O   3 s e 3 7 e x T #.&.#.^ s = x H x e k F M M Z s 1 & O     &   & 1 M ` x e f P ^ t 7 7 = t & ",
"= 3 1 3 e s f M M x k k k s 7 1 1 O 1 k Z k 7 = 3 & t #.>.T x 1 k Z Z M F Z f t ^ x 3 1 = O   O   O   3 t e s M T k s s f t O = ",
"t 7 1 1 e t e e t s s e 7 e e 3 3 1 = e x f e f f s & & F P 3 & 1 7 t f x x k s  .Z e 7 e 3 & O 1 &   &   3 s t f T T x e 7 e = ",
"s 3 1 7 7 3 s F s M f s x s e M 3 7 = t x 3 3 k M H x = = f s & & t e 7 k F x s M t t Z s f e 3 7 3 & 3 7 O & 7 M F F x t 7 3 1 ",
"s 3 1 e t 7 e f Z 7 1 k P F k k s F s 1 3 t x M &.-.` x 3 = 7 k 1 1 s s x Z f M x f 3 x M 3 P x e & 1 s 1 & 7 = = 1 1 1 e s t 1 ",
"t s f s 3 & O = e t s e t P ` k s F x t e t x Z ^ #.#.} P s = 7 7   1 7 s M 7 t e 1 3 e x k H P t O s P e e H t s s 7 & O = 1 = ",
"3 7 e e 7 3 1 3 1 = e s = & s M H T Z s 7 e H ! ` -.&.` ^ F s 7 s & 1 = = t 7 = = & = 1 3 H Z ^ f O t H 3 t #. .! H x 7 & & 1 e ",
"f 3 & = t k s 1 = t f e 7 e 3 = k F Z f e F -.&.! } ! M M Z M x t f f f 3 1 x x t k 1 e 1 3 Z ` Z &   3   = ! -.^ Z f f s 7 3 7 ",
"x e = = 7 s t e t f f f x M s e k f f s = 7 Z M ! Z f f f f s t 7 s t F M t !  .T Z P M t   1 Z H e   = 1   3 f x t 7 e 7 1 3 t ",
"7 7 7 7 3 e x T & Z ! t & Z P 7 H s t k t Z 4.9.4.P x x s t s t k x t x Z x P ^ ` k  .T x 7   = x s 1 e s = O   1 3 7 1 & = t M ",
"t t s s t t F } f x } ` e 7 M s Z x k s 7 H 4. .! Z P T f s F H ! } T f t s f M H Z Z T Z H s   1 3 1 7 e 7 e 7 e s s 7 3 e e 3 ",
"e s f & 1 Z } P M t ! ^ M t O f Z x f 3 s f H T e e t s 3 t P Z Z Z x H M x 7 3 M Z k f P H H 3 = = 7 t 7 7 k F Z Z e k s & 7 1 ",
"7 e s 1 1 3 k k M f k ! M e = k k f f 7 7 1 e e P M e t f t k M Z x f Z M F M M 3 x t t ` -.M 7 & 1 f Z t = 1 s M k 7 e 3   1 3 ",
"e 3 3 = e e s f e Z e F s e Z #.M f f 7 7 7 k x ! ^ k s x e = e k f s M Z H Z Z H 7 1 1 3  .! e & & t M s & & 7 f t 3 3 = O = 7 ",
"1 3 = O f Z T ! 7 x 3 x f 3 H 9. .H x t 7 s F P M F s k #.>.Z O e t s x M Z Z Z x M x e = s t t 3   O 3 3 = 3 e e 7 e 7 1 1 & 3 ",
"= 3 7 & t f P  .k e 3 f Z = t  .! x s f t k M k M k s e Z #.` e 7 e t t s k F P P F k e 3 = s s s 1 & O O & 1 1 1 1 7 3 1 = & = ",
"s 7 7 7 t 1 t Z k s M 3 t 3 f ^ k 1 1 f t k k 7 x t M s O e M k = 3 t e s s x M x 7 s Z M e Z = t e e 3 & O & O O & & & = 1 3 1 ",
"M 7 7 e s 3 7 3 e x T 7 = 3 M ! M 3 3 k t M M s s O t M x Z x t = 3 s t f t t 7 3 x f e f 3 3 Z 3 3 e s 7 = &   = 3 & 1 3 7 s e ",
"t 7 s e e e f 7 t s x M 7   1 f f = 1 M k T ^ T Z = = 3 t Z M M e 7 s 7 f t f e f s s f s M = & 3 & 1 s s 3 = O f M e s f t k 3 "
};
