/* XPM */
static char *c7dfc59948944f498b5d3853e1277178phulbIPoPJDCHSMw[] = {
/* columns rows colors chars-per-pixel */
"64 64 243 2 ",
"   c #030302",
".  c #0C0B0C",
"X  c #070707",
"o  c #14060A",
"O  c #0C110B",
"+  c #12120E",
"@  c #1C140B",
"#  c #0C0C13",
"$  c #050A1C",
"%  c #0B0C1C",
"&  c #070715",
"*  c #130D13",
"=  c #130D1B",
"-  c #1A0A16",
";  c #0D1213",
":  c #0C111D",
">  c #0B151A",
",  c #141413",
"<  c #191515",
"1  c #161A14",
"2  c #1A1A15",
"3  c #14141B",
"4  c #1A151C",
"5  c #151A1B",
"6  c #1C1B1C",
"7  c #221D1E",
"8  c #291A18",
"9  c #301018",
"0  c #1D211D",
"q  c #22231E",
"w  c #29241C",
"e  c #35271B",
"r  c #0C0D23",
"t  c #0D0E29",
"y  c #070A21",
"u  c #120D22",
"i  c #140B26",
"p  c #0D1324",
"a  c #0E1A24",
"s  c #0D142A",
"d  c #0D1B2C",
"f  c #051222",
"g  c #121424",
"h  c #1B1425",
"j  c #131B25",
"k  c #1C1D23",
"l  c #13152B",
"z  c #141B2C",
"x  c #1A1C2C",
"c  c #1B152B",
"v  c #0E1B32",
"b  c #0E1531",
"n  c #141633",
"m  c #141C32",
"M  c #1A1D31",
"N  c #131C3A",
"B  c #191A3A",
"V  c #160F31",
"C  c #231D23",
"Z  c #221C2B",
"A  c #281827",
"S  c #361B28",
"D  c #221E32",
"F  c #291A36",
"G  c #361734",
"H  c #1D2224",
"J  c #15212D",
"K  c #1B222C",
"L  c #132227",
"P  c #152333",
"I  c #1B2334",
"U  c #16223B",
"Y  c #1B243B",
"T  c #1C2A3B",
"R  c #1B2B34",
"E  c #0F2129",
"W  c #232323",
"Q  c #2C2324",
"!  c #262925",
"~  c #2A2A26",
"^  c #24242B",
"/  c #2B242A",
"(  c #25292B",
")  c #2B2C2B",
"_  c #322B2C",
"`  c #372828",
"'  c #2E322E",
"]  c #37332C",
"[  c #232433",
"{  c #242A34",
"}  c #2C2C32",
"|  c #22253B",
" . c #232B3C",
".. c #2B2B3C",
"X. c #2D2437",
"o. c #332E32",
"O. c #372638",
"+. c #2A323C",
"@. c #2D3235",
"#. c #333333",
"$. c #3A3433",
"%. c #32353B",
"&. c #3A363B",
"*. c #343B3B",
"=. c #3B3B3C",
"-. c #383A35",
";. c #49151D",
":. c #412D1B",
">. c #471927",
",. c #491B37",
"<. c #472A2A",
"1. c #463829",
"2. c #472837",
"3. c #582A3A",
"4. c #423D3C",
"5. c #463537",
"6. c #57353A",
"7. c #57302B",
"8. c #682A3A",
"9. c #64343C",
"0. c #6C333C",
"q. c #673A3C",
"w. c #77383D",
"e. c #73283B",
"r. c #671E39",
"t. c #3E413C",
"y. c #47423A",
"u. c #54473B",
"i. c #6C453D",
"p. c #79453D",
"a. c #1C2541",
"s. c #1D2A45",
"d. c #232B42",
"f. c #2D2D42",
"g. c #252746",
"h. c #332B46",
"j. c #2C3244",
"k. c #2C334C",
"l. c #273447",
"z. c #3B3D43",
"x. c #33344B",
"c. c #373747",
"v. c #2D2559",
"b. c #342C59",
"n. c #293652",
"m. c #373758",
"M. c #352C63",
"N. c #3C3866",
"B. c #291E40",
"V. c #471D43",
"C. c #482944",
"Z. c #473749",
"A. c #583645",
"S. c #473957",
"D. c #57314D",
"F. c #662A45",
"G. c #683944",
"H. c #733C44",
"J. c #773745",
"K. c #78334D",
"L. c #423B68",
"P. c #443B72",
"I. c #3C4348",
"U. c #3A4257",
"Y. c #444444",
"T. c #4A4A4A",
"R. c #484748",
"E. c #564A4D",
"W. c #484956",
"Q. c #594757",
"!. c #4D5258",
"~. c #565658",
"^. c #6A4645",
"/. c #784846",
"(. c #6A4A56",
"). c #774855",
"_. c #755455",
"`. c #75554E",
"'. c #484669",
"]. c #4D5263",
"[. c #595667",
"{. c #4B4676",
"}. c #514A77",
"|. c #595877",
" X c #5A4A67",
".X c #615B7A",
"XX c #6E5668",
"oX c #5E6374",
"OX c #656163",
"+X c #7B6669",
"@X c #63647D",
"#X c #686879",
"$X c #776979",
"%X c #79757B",
"&X c #7A726F",
"*X c #6A625A",
"=X c #80453D",
"-X c #903A51",
";X c #B23C54",
":X c #CB3248",
">X c #C73957",
",X c #D63557",
"<X c #CF3049",
"1X c #865956",
"2X c #844D48",
"3X c #AB435B",
"4X c #93665A",
"5X c #B84B68",
"6X c #8A6868",
"7X c #896971",
"8X c #917373",
"9X c #A2686D",
"0X c #C74969",
"qX c #C14359",
"wX c #A38379",
"eX c #9C887F",
"rX c #554C81",
"tX c #5C5986",
"yX c #645D85",
"uX c #715C83",
"iX c #6B6C83",
"pX c #686788",
"aX c #746B88",
"sX c #777689",
"dX c #7A7893",
"fX c #6F6B92",
"gX c #786DA8",
"hX c #7C77A8",
"jX c #7F78B4",
"kX c #857A98",
"lX c #897290",
"zX c #8577A7",
"xX c #8279B3",
"cX c #7F8198",
"vX c #898498",
"bX c #96879C",
"nX c #90878C",
"mX c #A18E8B",
"MX c #8B89A7",
"NX c #948AA6",
"BX c #9692A8",
"VX c #9897B0",
"CX c #A28FA2",
/* pixels */
"] $.7 W C 6 4 k 5 0 X } | h.h.f.X.: % g [.O.Q ~.-.    O , 8 e 8 - * . 1 ) 0 6 j ..M | h.h.c G C.O.Z h 4 C 7 . =.~.~.#.6 ) , } o.",
"=.4.o.&.4.^ # , H ,   3 D B.g.h.c.%.j.j h Q.o.=.0 O X   o ;.9.9.3.>.9 o < H H > f.f.....F C.D.C.O.c 4 C ! 6 ) ) Y.R.R.#.! , ^ } ",
"! ' #.Y.Y.) 3 3 6 O , 4 F S.C.O.G h.j.I.j...z.k k A >.e.-X5X0X0X0X5X3X>.- j  .x ..c.D F D.F.,.F.O.h 4 4 , + #.#.6 W ~.Y.2 2 6 } ",
"*.@.! ! 2 2 k . 6 R.) / X.D.D.D.D.O.^ +.I.].W.c.j.Z.-X0X0X>X,X,X,X>X5XK.Z.| j.x.f.h O.A.F.r.F.F.O.u 4 4 X 2 =.#.R.Y.~ ' -.W , &.",
"I.I.Y.~.-.O 6 4 $.R.E.R.A D.F.F.F.A.5.A ^ +.x.m.U.Z.K.5X>X,X,X,X,X>X-X3.c.n.k.d.l O.A.3.0.8.e.G.O.3 C / X 2 T.%.^ =.) ) Y.-., ) ",
"~.T.=.Y.-.+ , * C $.E.R.A A.K.e.8.8.6.A./ [ T n.n.c.K.3X>X,X,X<X<X>X-XC.m.n.s.Y [ Q.A.3.8.8.8.G.O.* ) _ 2 . } =.3 %.#.) ) W ^ 6 ",
"=.z.o.6 1 2 W , X < ~.R.4 2.).e.w.0.q.G.Q.Z j.l.m.c.3.3X>X<X<X<X:X3X8.X.g.n.n.U m.XXG.9.9.9.9.^.S = / #.-.4 # o.^ , W W o.) 2 C ",
"Z./ _ Q 1 O + , / ) #.*.C O.).J.w.w.w.).+X&.j.k.j.c.S -X;X:X:X:X>X-X2...d.s.s.s.x [._.H.G.6.H.G.S } } Y.#.C W %.} k ~.Y.) ! ^ ) ",
"/ / C Q O O . W &.E.*.H } A )./.w.p.2X6X~.K ..f.......2.3X>X:X:X;Xr.O.{ Y s.a.Y I Z Q._.^.G.).A.A R.} y.-.) o.=.k 3 ~.OX#.q 2 6 ",
"^ ) o.$.6 q W 4 4.R.*.*.W.} A./.2X2X6X*XH  ... .|  .j.F 3.-XqX;Xe.,...T P Y Y T x ^ A Q.+X(.).3.- =.R.#.-.#.! k W 6 , t.#., ) 6 ",
"( #.=.=.! 1 ! ) _ =.W @.%.Z 5.1X`.6X7XC K  .I d. .I l.{ Z 2.2XJ.S D  .T P T I I I I x C Z.$X(.A ^ ( T.t.t.' 0 6 , 6 2 + + 1 W ! ",
"( ( %.t.' O ( *.) -.! *.[ Z / _.8X6XA [  .T T  .d.T T  .R ^ 2.>.Z I T P I T I I J J J x h Z A Z c.( I.@.T.~.W , 6 W 0 , + + , ) ",
"H ! #.~ 1 O #.=.#.-.y.@.j ..Z o.~./ Z [ ..T I  . .T I I R J ^ C D [ M x I [ I P P T d I f.D r M U. .I.> t.~.! 5 # 6 , + + , k ) ",
", ' ) . O ; @.T.=.=.4.) [ | j.p : ..} [ I I | I I I I I P J I x z x x x D M M I P d T m | x.m Y m.j.+.%.L } ^ k ( ^ W 6 3 # = [ ",
"2 q , ; ! ) ) z.=.-.-.T.W. .U.P l.d.R R K [ I I P J K I K x x x a j x x x x P P P P T z l f.n.N g.a.j.j.+.j c.% g ..h 3 x [ [ c ",
"o.. . k 3 4 W ^ ' -.T.W.U.n.U.s.f.D x K X.[ K I J I K j x x g z a a j x z z m x z p t c F F h.g.a.N Y d.j.j.j.f.| x.f.f.c.f.| | ",
"% > # H %.k ^ %.*.I.I.c.j.d.k.m.G A A h i g x K J x z x x g z a j a z g z z g i B x.'.L.V.V.C.h.n m P I I I |  .g.j.d.g.Y N d.Y ",
"I  .j.I.W.c.+.+.+.c.l.d. .Y g.x.2.2.D.S.S...g g j z m x l g : j g g g z r t V m.fXhXMXzXXXG V.G l m m m m I I Y U s.U N a.U U s.",
"....j.x.x.c.k.j.d.d.T T Y M I h.2.3.lXvXvXsX[...3 g g : p j # > % g p p s B rXgXgXhXgXzXlX,.2.A l v d m M M M M Y N U U N U Y Y ",
" ... .d.| d.d.d.s.Y s.Y I P x X.,.).bXvXMXMXvXsXW.h : j g g j g g g g r B fXgXgXjXxXjXMXlXC.A A z d s m n m M m U v U U m Y Y P ",
"Y k.d.d.g.a.Y a.Y U T P P K z Z S ).CXBXBXNXNXbXkX[.h % % l u u g % u c '.dXgXgXgXxXMXzXkXC.h Z z s s s l m m m m U v m m x I x ",
"z k.Y N Y Y a.Y U P P z j z z C S (.CXVXNXVXVXkXbXQ.O.[.D u % i i F X.F aXyXgXjXxXxXhXkXvXX.c l z s p s s s s m N U v m z x ..K ",
"m d.d.I T I I z P P z j a j j k - E.BXNXBXNXNXNXNXQ.A Q. X XF V S.uXS.i h.fXzXxXjXjXzXMXaXt B n m s p s s s s z v s v z g ..W.I.",
"T I T P I J J J L L a j j : z k 4 A vXBXNXMXBXvXbXXX- 9 $X$XZ i  XuXZ.- F aXzXzXxXhXhXMX|.y N N n s p p s s s s s d z p z z.~.[.",
"I.I { K z z J j j j a a p : j x K & oXVXMXMXbXvXnX%X9 S 7X7X- X Z.lX(.S Z.lXlXzXzXhXzXcXd.f d m n r r p r p p p p z p j [ I.Y.~.",
"c.I.K j K j I x z g p p p p j x K a +.BXbXBXbXnXnX8X`.1X8X8X<.@ _.8X7X7X7XlXlXlXlXkXvX#X$ p d s n p r r y p p p p $ p & > k ^ ~.",
"*.*.k j R x s l l s s r r p p z j K & OXCXnXmXmXmXwXwX9X1X2X^.q.^.).).1X1X6X8X8X8X8X8X&X) : z n s p y r r p : : p { I   # ) R.R.",
"#.H 3 k z P x M s t t t r p p K j 5 6 &XmXmXwXwXwX8X4X2X=X/./.q.H.H.H.w./.2X`.`.`.`.`.+XE.# g n n p $ % p % : g K c...# . , =.4.",
"< 6 k ( j x | z l t t t r $ p K L , ] 8X6X4X4X4X1X1X2Xp.2Xw.w.J.0.w.J.w.J.w.H./.H././.(.E.3 c M M s $ p : & & 3 k # 3 ^ 6 .   . ",
"4 7 ^ ^ H H x x x g p r % & g K j 5 _ *X`.p././././.p.w.w.w.J.J.w.0.0.0.8.0.G.G.H./.^._.$.# h g m z p K x & # . . 3 ^ z.! 2 , 6 ",
"/ 7 C 6 W H H @.^ H k g j : I T z j 6 *Xi././.i./.i.i.i.0.w.w.9.9.9.9.9.9.H.G.9.G.G.G.(./ # g z m P I +.} k 4 * X , 6 z.#.) ! 2 ",
"Q o.) ) ! 5 ~ 0 ! ) ^ H ..P x.d.v z # $.`.i.i./.i.i.i.i.q.w.q.9.9.q.9.G.G.G.9.^.G.G.(.O.# 5 % g z m M { K j ^ 4 # # W #.) %.) W ",
"/ ) &.! ) 6 q 6 1 ) R.Y.g d.n.U d z # , u.`.i.i.^.i.i.q./.q.q.q.q.q.9.9.G.9.q.6.A.^.2.- % p a p l m I I |  .I K X & ; H ! #.' 6 ",
"o.%.=.! H 0 6 ' 6 ! z.c.| d.l.v d a g . - 5.^.^.6.^.^.^.^.^.q.q.G.G.9.9.G.6.6.A.A.O.- & u g p s s m m m m I T T  .z : K { } } 3 ",
"4 } #.! H ( ; 5 ^ [ ..I T P P a a % g 3 * - S 6.E.^.6.6.<.<.` ` S ` S O.S O.2.S - - - = u % r p s l z z z J P U s.n.m.n.x.c.R.j ",
"2 W k ; H ( K P d.d.Y I P L E L a g r u h = o - 8 S 5.5.5.5.Z.Z.c.R.Z.S.Z.h.i & & * = # # p g r p s z z z z m v N N g.k.x.j.W.[ ",
"+ , # K j.d.k.k.a.Y T I J j j a p t t r y u u & / &.E.OX$X$XaXiXpX|.|.|.'.m.S.x.% & & # # r t t s p p p s m m N N N N N Y  .W.z ",
"1 2 X  .k.k.n.s.Y P I z J j j : s y s l $ & = & !.#X#XsXdXdXdXfXpXpXpX|.tX{.N.g.& & % : % y t t g p p r s m m N N b m I M z j.j ",
"2 H # { n.k.s.v U P P d z z z p p p % : : ; #   z.#XsXsXdXdXdXkXfXfXpXpXtXtX|.k.y p & & % p t r p p p s s b b b s x z a j c.W.H ",
", 3 % M k.Y N U v P a z p z r l p g > % # X ; > +.[.#XiXvXcXvXdXdXfXpXfX|.N.g.s p p % % r % % u : : p p p s s m s z p z j *.I.H ",
". ; & g d.Y d v E J a a g p t t g % # # # 5 j : j z U.sXdXdXsXaXfXyXtX|.}.k.n n p r l r % % g % r % % p : : p l s s z p ..%.( ; ",
". k { & a P P P d a L j : r r u * 4 = # k k % % M z | U.].|.@X@X|.|.'.x.B r p I p $ p g g % % % r i p : % : p p p s s | { ^ ! 1 ",
"+ 2 W # a P z d d z : : g g h - - o o 7 Z & & $ x x s z n Y k.U.m.g.l p s x x p a $ $ p g % % % r r r g g p p p l % j.j.H I.! 1 ",
") W , 6 k K z x z p z g = * - Q 1.] 5.7 X = Z h.f.I g z z s r s s s z z a a z a z p & r g g = r r t t t t r r p : K R.} I.*., 6 ",
"k , + O 1 , k j z l p 3 * Q u.u.y.y.1.4.~.%XbXvXvXaX!.K a j j z z d d z a a j a j z : % g l l r r t t t r i g g } !.^ #.0 X q q ",
"# # 6 , 1 ~ ) %.^ x g # _ u.1.:.1.e 1.7XbXvXvXsXdXdXvXdX[.[ : a z d z z a p j j K { : & % g l l r $ r x D x Z } z.~.5 ) 1 , + + ",
"6 2 , 2 < o./ =.c.( 5 ) y.1.:.1.8 ] %XnXsXsX|..X|.yXpXfXvXkX@Xx g j z z z l g p +.%.g # % r l n g & & 3 W H ! #.R.} } W 7 6 . . ",
"2 2 * , 7 k k C ) 2 -.T.] ] e @ 4.sXnXsXkXsX|.b.N.{.}.tXyXpXdX|.: j l g l l g g c.z.H k j p r l x 3 X     < 8 7 _ Y.R.} 6 W , , ",
") , , 2 2 + ) %.o.Q 4.u.e 1.@ 5.vXsXvXsXsXdXfX}.v.M.P.{.{.{.|.dXx.& z s z l r g } ^ H =.k j : p g x g g o - S S 5.5.&.! ! 4 , # ",
"W 1 , C 7 , , #.#.Q 5.<.` e Q $XdXsXaXaXiX.X.XpXtXN.M.M.N.'.|.pX].p z s s s l x %.( . ) =.W k : u p j ^ A S >.9 9 S 7 4 4 0 #., ",
"6 ) 6 ) 2   . . W C 5.` ] 8 R.kXsXsXiX.X'.'.}.{.rXtX{.M.N.M.N.|.[.p s s r s g j k 3 2 6 =.} &.%.g % g h A S >.;.>.>.9       X + ",
", W 6 < q 2 . , . 6 $.` ` Q OXsXsXsXaX|.b.b.L.P.{.rXrX{.{.b.N.|.'.p p s s p p g X X , X , %.W.!.[ r g # - 9 >.;.9 >.6.<.Q ~ W 1 ",
") . . , 6 ! W 2 # C Q ` ` _ $XaXaXsXfX.X}.b.v.M.P.P.P.{.}.N.'.|.m.p p t p p g +.} #.6 q   6 =.!.z.3 % % h 9 9 ;.;.7.7.6.5.4.T.-.",
"} W . * 6 ! 0 H 4 #.Q Q Q #.#XaX@XpX|.}.rX}.P.v.v.N.L.N.{.m.N.}.| r r p s $ z !.Y.=.=.-.6   # =.Y.3 & g = - 9 <.7.7.:.` $.Q ) $.",
"6 3 W < , ~ ) t.k =.R._ _ &.#XiX@X'.L.L.P.P.}.{.M.v.b.'.m.g.m.m.l $ r p p p x W.~.=.~.R.=.3   . -.6 > p % - ` <.:.e ] ` Q / o.o.",
"6 ) ^ 4 W 2 -.OX! ' OX4.$.&.#XiXpX}.b.b.N.P.P.P.P.N.g.g.n t n l t r t r p z z %.z.%.=.T._ Y.W   , , % : 3 o.5.e e w 7 C / * ^ #.",
"6 ) C < , ' ~.Y.#.k E.E.&.o.@X@X|.tX'.b.v.M.P.P.L.'.B n s s t y r $ & p p z K k %.} } ) Y.R.&., , ; j # &.] e e 8 %.[.#XiX[.&.! ",
"4 4 W * . 0 ! #.z.^ _ T.$.C m.|.|.'.}.{.N.v.v.M.N.m.n p l l % x x [ j & a j z K ^ } } 2 R.OX%.6 # X %.%.Y.Q 8 ` OX%XdXiXsXkX%X~.",
", 6 , . , q ) H H %.W $.] k [ |.'.m.m.L.N.'.M.m.m.B l z % % # ....%.[ x : j j K K ^ 5 4 6 ~.R.6   . k } _ 8 e +X%X#XiXfXfXiX#XsX",
"5 . . , W #.T.!.5 %.6 _ Q X !.sX[.m.m.m.S.L.m.m.k.l l p % z.%.X ^ ( ^ } : a a z [ } ^ k , 2 ! 6 , X , / o.8 A.$X$X$XiXpXpXpXiX#X",
"X 5 6 * 6 ) R.~.%.4 < ~ ] X @.oX].c.D f.c.S.x.f.n r p p g !.~.q * 6 ^ H K a a z j +.c.3 3 6 ! q W     . / A XX$X$X#X@X@XpXpXiXiX",
"! W , . 6 . 6 =.k %.$.2 w 2 ( I.H g 3 Z x ^ [ M p p p g > k ' ) , , W ^ H a a z P x { j.@.W W 2 q q W , Z F  XaX@X#X#X@X.XpXpXpX",
"! 2 ) 6 ! ! , , H } Y.w   O } [.=., W ) #.} %.g r s r a { %.#.W 2 , 2 ^ H j p p z z x x ( 1 ! ~ . + ^ 5 j x @XiX#X@X|.|.[.].W.m.",
"~ 1 W W 6 2 ' 5 H ) $._ @ X 5 H ! . + -.6 ~.z.% p p r : [ *.=.' . q W , +.K a a z z I [ ^ #.  O + < . ( I g ].iX@XoX|.[.S.h.f.k."
};
