/* XPM */
static char *_54ec43c4a3a477fa9c29935d46e6b37RA4cp6H2kxbRTNxB[] = {
/* columns rows colors chars-per-pixel */
"64 64 245 2 ",
"   c #040201",
".  c #0B0302",
"X  c #030A03",
"o  c #0B0A04",
"O  c #050409",
"+  c #0B040A",
"@  c #040C0B",
"#  c #0C0B0B",
"$  c #130202",
"%  c #1B0202",
"&  c #130A04",
"*  c #1B0B03",
"=  c #13050B",
"-  c #1C040B",
";  c #130C0B",
":  c #1B0B0B",
">  c #011303",
",  c #0B1104",
"<  c #05120B",
"1  c #0C120B",
"2  c #151201",
"3  c #1A1205",
"4  c #14110D",
"5  c #1B120C",
"6  c #1B190C",
"7  c #101A0F",
"8  c #070511",
"9  c #0D0B11",
"0  c #0F0514",
"q  c #130512",
"w  c #140E12",
"e  c #1A0E11",
"r  c #1A0715",
"t  c #0E1211",
"y  c #031213",
"u  c #141212",
"i  c #1B1313",
"p  c #1C1915",
"a  c #121519",
"s  c #1B161A",
"d  c #1C1B1B",
"f  c #141B14",
"g  c #230201",
"h  c #2C0201",
"j  c #240C02",
"k  c #2B0B02",
"l  c #23060B",
"z  c #2B050B",
"x  c #230C0C",
"c  c #2C0B0B",
"v  c #330201",
"b  c #3B0200",
"n  c #330C03",
"m  c #3A0C03",
"M  c #320C0B",
"N  c #3B0C0C",
"B  c #35040B",
"V  c #241105",
"C  c #22120C",
"Z  c #2C120D",
"A  c #28180B",
"S  c #3A1302",
"D  c #32130D",
"F  c #3C130D",
"G  c #3F190D",
"H  c #341507",
"J  c #230511",
"K  c #240C13",
"L  c #2B0E13",
"P  c #270A18",
"I  c #3C0A14",
"U  c #370814",
"Y  c #231414",
"T  c #2C1314",
"R  c #241A14",
"E  c #2B1B15",
"W  c #231419",
"Q  c #2C1619",
"!  c #241C1C",
"~  c #2C1C1B",
"^  c #321313",
"/  c #3A1411",
"(  c #321B14",
")  c #3B1B16",
"_  c #31151A",
"`  c #3A151C",
"'  c #351D1B",
"]  c #3B1A1A",
"[  c #1C211C",
"{  c #2A2315",
"}  c #24221E",
"|  c #2D221C",
" . c #242517",
".. c #38251C",
"X. c #1F1F21",
"o. c #2B1C23",
"O. c #2A1D26",
"+. c #351722",
"@. c #252324",
"#. c #2A2322",
"$. c #2C2929",
"%. c #2B2828",
"&. c #342323",
"*. c #332826",
"=. c #3C2C24",
"-. c #372728",
";. c #3B332E",
":. c #352E31",
">. c #343231",
",. c #3A3233",
"<. c #3D3C38",
"1. c #2F2732",
"2. c #440301",
"3. c #4D0200",
"4. c #440B01",
"5. c #4C0C02",
"6. c #440D0B",
"7. c #4D0908",
"8. c #5A0300",
"9. c #550B01",
"0. c #5B0B00",
"q. c #550A05",
"w. c #451203",
"e. c #4B1201",
"r. c #4B130E",
"t. c #481807",
"y. c #541102",
"u. c #591507",
"i. c #440715",
"p. c #431514",
"a. c #44141D",
"s. c #441B1D",
"d. c #4A1B1C",
"f. c #471C15",
"g. c #531D14",
"h. c #591816",
"j. c #5C0F1F",
"k. c #640200",
"l. c #690A03",
"z. c #750D04",
"x. c #641202",
"c. c #6B1500",
"v. c #65180C",
"b. c #771C03",
"n. c #641911",
"m. c #681516",
"M. c #761916",
"N. c #780F1D",
"B. c #492407",
"V. c #4A2219",
"C. c #5A231A",
"Z. c #57321B",
"A. c #642207",
"S. c #742604",
"D. c #692514",
"F. c #762614",
"G. c #6E351B",
"H. c #6E3800",
"J. c #481823",
"K. c #541425",
"L. c #591D26",
"P. c #621924",
"I. c #442422",
"U. c #402F29",
"Y. c #4A2725",
"T. c #5B2323",
"R. c #562C2A",
"E. c #552727",
"W. c #49332A",
"Q. c #5C2731",
"!. c #473737",
"~. c #563632",
"^. c #4B2230",
"/. c #772928",
"(. c #733625",
"). c #682938",
"_. c #6C3538",
"`. c #7B3A34",
"'. c #692E29",
"]. c #59453A",
"[. c #664338",
"{. c #7C422E",
"}. c #563540",
"|. c #6A3B43",
" X c #5A4E4E",
".X c #92170D",
"XX c #852A02",
"oX c #992601",
"OX c #8A3A00",
"+X c #973809",
"@X c #8A2618",
"#X c #9B3619",
"$X c #8D2B1B",
"%X c #B62C0B",
"&X c #862B25",
"*X c #8A3626",
"=X c #953528",
"-X c #853634",
";X c #992B2A",
":X c #AB2A24",
">X c #C73C1F",
",X c #974204",
"<X c #904C0B",
"1X c #A24500",
"2X c #B84906",
"3X c #A54F12",
"4X c #BF7A1F",
"5X c #8D4335",
"6X c #984A34",
"7X c #914D31",
"8X c #B45C2C",
"9X c #A84C36",
"0X c #BE6837",
"qX c #CF5606",
"wX c #D26A07",
"eX c #EA7E0F",
"rX c #C2542F",
"tX c #C86339",
"yX c #C97827",
"uX c #805050",
"iX c #8D504F",
"pX c #B45347",
"aX c #9B624B",
"sX c #BB654E",
"dX c #B7724C",
"fX c #966966",
"gX c #C9785C",
"hX c #D36C4A",
"jX c #EF7B56",
"kX c #CC7F6F",
"lX c #D58306",
"zX c #F99C15",
"xX c #DFAA00",
"cX c #FFB71C",
"vX c #CF8024",
"bX c #EB8A2B",
"nX c #FFAA29",
"mX c #FFD518",
"MX c #FACA0C",
"NX c #FFCD25",
"BX c #E6814B",
"VX c #FFBD4C",
"CX c #DD8A62",
"ZX c #D38D48",
"AX c #FFC650",
/* pixels */
"~.* $ . $ .   X X X X X   X             # u w .         . $ $ $ $ .   X , o . . J - = $ % g v b v v b b b b h $ $ ; u p Q j G [.",
": . $ $ $ $ $ . X @ @ X           @ u #   + + # +         . $ $ . . o 1 o   $ : K L W Y c c b b g.5.3.9.9.2.v k & u i i x * j H ",
". . % $ % % $ $ .   X X @ # # #   # u #   . # u # # o         . . . # o X . : Q - J K T ^ / r.u.9.8.z.;X;Xm.b h $ ; w = $ : * . ",
"X   . % z Q.J.z $     X < t u i         # ; # # # # 1 # #       . + o X X ; : L K K x x k v 2.9.0.l.@XpXpX&Xr.D ; # # + . : i . ",
"> X . L Q.iX_.U % . X X X     . #       # ; o   X X # 1 1 # @ # i i # X X & : - _ Q T Z n w.y.u.A.v.M.$X&Xn.G { f O + + . $ ; o ",
"> , Y ^ i.).K.I l .   X @             + + + + o o @ @ o X X @ # + = # o   . $ l L l x c S t.u.u.e.w.9.x.u.4.j & 1   O = = . . # ",
"X o ~ l g h I J.l $ o u d u = . # + + +     o ; ; ; ; o .     o     o 1 o . $ : l % % j S e.0.9.S S 4.u.g.t.* X X X   # q $ . = ",
"} ; Y x L z z l : ! ,.>.u     w O.u # # o     . . $ * : $ & + o = + # p p = $ $ - % * ( Z.{.6X6XC.S v v m c * &   #   + e = . - ",
"Q Y : = : Y #.*.:.:.*.i     # i s @.d   # 4 & : T $ % % % % . $ . s u 4 & . : . % Y C j B.(.sX9X5X2.v h h ^ ` _ Y .   o & . % T ",
"L x $ . X 1 f [ u # + . ; ! %.%.s d u   o 4 5 C Z D s.% z l l . .     o . . Y -.: 5 & $ g b 0.F.-X2.g g l _ +.` _ : o X   . g s.",
"z % .   X X X < X   ; ! ,.!.>.@.s 9 # # 1 f C j g h N d.d.h c T % & i .   Y &.~ : =   $ j 4.8.pX`.N % $ + e r - % $   X   . ] _.",
"% % .   X X X X   # #.-.-.! #   +     < 1 1 & . % h B uXR.g % W.U.$ ; 3 : Y : e ! 4     $ g 2.*Xg.%   X @ 9 q - - $ X X o $ M a.",
"- = = # < @ X X X u p i +       .   u f @ o & % ) E.E.uXY.g % ~ =.. . $ $ : % e +   X o j v v.D.n . X X < y @ u ; . X X o . $ % ",
"+ + # # # #     ; ; #           . w @.[ @   6 ..W.V.d.d.] % $ $ x x C * * x $ $ +   X   % g n.9.n $ o X X @   #     X X   . $ - ",
"X X   . . . . . . .             . w s #     & A ) g h % j . . . V j * =.U.$ . : w @ X X $ h n.-Xb g % . & # O w # # # X     + q ",
"@ X X   . . $ $ . . .   X X o . + e +   o 1 o $ * % g $ $ & . & . C . 5 *.i = w 9 @ @ 4 : M 2.aXu.2.v % % = . + . . .     . + O ",
"o     .       .             X # i ; .       . . . $ $ $ . & + . . . .   + # u u a u u = $ % N C.5X0.b g $ x . e . & . $ $   u 9 ",
"                o             # +     . + . . . . . .     . + + = = #   O t a a u # ; $ $ $ l 6.6X6XA.m % - : . $ $ j $ . . + 8 ",
"                # # # u #       +     . . .     = . . . . . . . . .       O # # +   . & $ % % n D.6XaXV.% $ . . . . W.( $ Y + 8 ",
"; o           . o   # i w     + u # .       . + = . . = = . . .           .   + +     $ $ % % h 2.9.(.N % : + e C * ].W.C #.w a ",
"; ; & . . . + +       +     + i i ; +       . = + . . + & + & = ; ; u u u ; # # ; = . . & & $ % b 4.v c Q = ,.,.;.E W.=.* = w w ",
". . = = & o +       + # +     + ; o + + . . . o i ; = + . . = i i i p p s w = = ; = . . . . . % n w.m c Y w $.:.| * C R .   + O ",
". + ; ; = ; ; ; ; # ; u s i w # +     + .   . + i p i = . . = ; # # w i i ; . $ $ $ & . . . o & k g g % : O..   . . . * . . . . ",
"= i Y i ; i p ! @.i + # ! :.,.:.+           . +   # ; + . . = #     + w w ; = : = : : =       . % ) % ~ e + w .     $ . . = + w ",
"&. Xi .     ; ! @.d d u + u ! i         + # .       . . . + . + O       = i e = Y *.Y . o o   ; x j ~ Y ; #     + . . . . . + ; ",
": #.. . ;     4       + . ; i ; ; #       + +           . . . + O O     . = = $ = ! i = p u X   = : &.! +   . # + + . .   . . + ",
". . .   4 u d } %.d d d i w w # ; o         + .             . + O O       . . & . i 5 ; p i     = : o.Y .   . ; + + .       . . ",
"$ . .   i *.>.@.d #                                         . +   O       + ; i = Y R 4 ; ; # i i = i : & ; & +             . . ",
".   = . p } [ X 1 X     + + . #     o # ; #                 . + .     . # 4 p R R ! p 4 ; ; s %.u . = = = 5 & .             . . ",
"&     ; u o X   X X     +           + # o                       + O   # ; 4 u p p 4 o = ; i i W +   ; = $ & . . . . O           ",
"; ;   # X   X X   X     # ; + #                 + . .           + + # ; # o # 4 ;     = : ; = .     ; & . $ . . . + + .     . . ",
": *.& ;     X X   t @   . .   .               . # # # + + . + . . + w u #   X @ o   & i w . .   .   . . . . . . . . . .   . . + ",
"$ ~ ! ; < X   o p w   O + . . . . . .       . . . + = : : = + . = + # X o 4 X X   . = = .             . . . . . .       . + .   ",
". * - # @ X   ; & + O 8 q . .   . .               . & i ! ! ! p . . o # o .   @ # = - = + O + .   . . o . .     . . . . . .     ",
"  . $ + O X   & & + + r W . o             X X       . ; s d i w . . o 4 5 C o 4 ; = = + O O + . o ; 4 4 ; o + . . . . + . .     ",
"X   + = # # & . 3 & = r +.% &       . O O O O O . . . . + O     . . . & T W.E & ; = . .     . . . o ; ; = o o o .       . .     ",
"X   + = + 4 * . % $ - J ` g $     O + + + + + . . . O . . . .     .   & D ~.( $ : = .       + . ; ; 4 ; ; ; ; 4 o .       .     ",
"X @ + $ . $ * j $ $ l z U ` $ . . + + + .       . . + + . . O + .     x M E.c j = + .     X . . 4 4 4 ; ; ; 4 4 4 ; + . . .     ",
"@ @ + $ . . k Z.t.g k l I |.j $ . O O . . . . . . O .                 j v T.N c $ + +   X X . + .       . + .   # ; ; # + . . . ",
"  O . $ $ $ w.aX5Xw.h g a.fXF j .   .   . + + o                   X   $ v _.p.g * = ; # X X # ; +     + ; ; # .   o ; ; o   + # ",
"# + . . . k 4.pXgXe.k * z d.r.h & X o   .   . .   X X X < @ @ @ X   . $ 6.'.N h : ; ; 4 < < o .         + # # ; +       # ; #   ",
"+ ; i .   % y.gXsXy.k $ % p.h.C.$   . . * % $ .   X , 1 7 u X       & $ N L.v g C i i 4 @ X               + + +       + # ; # + ",
"Y &   o 2 k 3.6X=X2.j . % h 5.g.g * g g g g % g D V * 3 & . . & .   & % p.E.M j : ; ; # X X   .                       + # # #   ",
". . + & 2 j u.sXx.v &   $ % h b p.F v v h 7.'.iXfXW.* j T % $ - x & & * s.R.D j $ . . .   X   .                         . .     ",
"p i u     % G.kX9.h .   & % h b r.6.2.h.m.-X-XiXg.m c ( l $ J }._ Q 5 * ^ ) x * i & . .   X                               . + # ",
"%.u O   ; j g.(.r.k o X i x M v v 4.h././.F.q.2.f.c % $ $ $ $ $ J T i & % % & 3 ! ; $ $ # O                               + # u ",
"    O + e % m m m * # y s K ` M c H V.g.r.4.r.V...{ 4 X   O 9 = $ l & . . . o 4 p = $ $ # O                               + + # ",
"  O + .   . j k % . O 8 0 r U.=.A V D k F n f...=. .1 X X     + = : .   $ . . . Y $ $ $ +                               .       ",
". $ = .   ; 2 . . & @.1.1.O.-.U.=.* $ E ..x : ! 5 u u t #   . .   X   . $ $ % I.^ % $ .       X         O                     O ",
"z g $ $ o.;. .o . & Y o.O.o.~ E C C : : e i ; # # # + + + + +   O X     . $ D ~.D g $ $ +     X       # i s ;   .   . . & + . . ",
"g g n ' ' Y & . . & : = r Y Y 5 $ R | 5 & e ! ! d w     + # + . .     . . $ Z ] / g % $ $     X   . : : % % % . $ * $ . $ g g z ",
"7XG.t.v l % $ $ . $ % $ . = Y R Y ~ ~ i +   # i @.s +     + # = . . . o   . : g ) M h % .   X X # $ j h v b v g % g n v 4.4.b e.",
"ZX<X5.h h M c k % * * % % : Y Y | i 4 p ! i u u u #       . # ; - $ . .   o C C ] s.s.z % & < # 3 V.`.F.k.l.c.S.A.5.0.b.XXXXOXyX",
",XS.3.2.b B B M j % % g Y Y : & ; p } } ! d d d           . + = l % $ & o , 6 C ^ I.Y.` L Y u # o % 5.b.rXjXtX8X8X0XjXBXbXbXlXlX",
"wX1Xc.3.2.I B h n g % g T Y : & 4 } #.u           # # + + # 4 i l l : 5 i 2 & 5 Z Z ^ ^ T Y e ; t : 6.x.9XhX#XXXb.+XrX2XqXnXNXxX",
"VXbX,Xc.3.i.I I F h g j x : Y | #.u           O # O     + i } -.K L - : Y 3 3 | C $ . % x : - :   $ b 3.@X#X8.8.l.k..XoX2XzXmXMX",
"AXbX3XS.h.K.J.I N f.~.( * Y & ;       #           9     u p ; = $ Q T l x : $ $ . . . : Y l % % % h b 0.=X8.9.2.0.k.oX%XwXzXMXmX",
"VXvXOXx.h.L.a.B F Y.[.' x ! &   .       O # O   # d i   o ; . . . Y Q z l $ . $ o       . $ g v h 2.x.$X9X9.4.b 3.l.:X>XqXeXcXNX",
"4X<Xu.4.6.a.a.] D Z I.&.Q e   .   # o     # #   + u w + & & . . . ; Y ^ L % $ : 4 , X X . - ` C.c.z.+XhXdX5.m t.7.M..X:X%XqXbXnX",
"H.e.v h z z T ] D * x Q e .   o     o       # # # + + ; = . . . .   $ T ` z % :   X X X . : ` C.b.oXtXCXdXt.k j N P.N..X.XoX1XOX",
"B.k % g x x : C ( ' ~ = . = .   o     # i u # # i u ; ; : : $ . .   . x T x % $ . X X X . $ l m D.*X7XD.S j A ; Q ^.K.j.m.v.F.A.",
"V % $ : i 5 5 R | | W = + # ; ; u # u d X.u # w + w i & : &.&.* & . : C : : * $ & o . . $ $ % g b 5.r.m g $ . . ! o.L U J.E.R.R.",
"$ . + # # # 6  .6 & + q 0 . + 6 u p @.@.d O . w     & . $ ~ &.Y C : C : = i Y $ . . . . . . . $ g % $ % g $ $ A * * * 3 | | & * ",
"$.s O O O < , X   . . + O . + . # # u u w # + . +   . = . . % % : $ $ . . ! !   . . $ $ $ . . . $ : $ . * j $ * * & 2 X X , 4 <."
};
